<svg xmlns="http://www.w3.org/2000/svg" xmlns:xlink="http://www.w3.org/1999/xlink" fill="none" version="1.1" width="12" height="12" viewBox="0 0 12 12"><g><path d="M9.33333,0C9.33333,0,0,0,0,0C0,0,0,12,0,12C0,12,12,12,12,12C12,12,12,2.66667,12,2.66667C12,2.66667,9.33333,0,9.33333,0C9.33333,0,9.33333,0,9.33333,0ZM6,10.6667C4.89333,10.6667,4,9.77333,4,8.66667C4,7.56,4.89333,6.66667,6,6.66667C7.10667,6.66667,8,7.56,8,8.66667C8,9.77333,7.10667,10.6667,6,10.6667C6,10.6667,6,10.6667,6,10.6667ZM8,4C8,4,1.33333,4,1.33333,4C1.33333,4,1.33333,1.33333,1.33333,1.33333C1.33333,1.33333,8,1.33333,8,1.33333C8,1.33333,8,4,8,4C8,4,8,4,8,4Z" fill="#707683" fill-opacity="1"/></g></svg>