<svg xmlns="http://www.w3.org/2000/svg" xmlns:xlink="http://www.w3.org/1999/xlink" fill="none" version="1.1" width="12" height="10" viewBox="0 0 12 10"><g><path d="M12,1.25C12,1.25,6,1.25,6,1.25C6,1.25,4.8,0,4.8,0C4.8,0,0,0,0,0C0,0,0,10,0,10C0,10,12,10,12,10C12,10,12,1.25,12,1.25C12,1.25,12,1.25,12,1.25ZM6,8.125C6,8.125,3.6,5.625,3.6,5.625C3.6,5.625,6,3.125,6,3.125C6,3.125,6,5,6,5C6,5,8.4,5,8.4,5C8.4,5,8.4,6.25,8.4,6.25C8.4,6.25,6,6.25,6,6.25C6,6.25,6,8.125,6,8.125C6,8.125,6,8.125,6,8.125Z" fill="#707683" fill-opacity="1"/></g></svg>