<svg xmlns="http://www.w3.org/2000/svg" xmlns:xlink="http://www.w3.org/1999/xlink" fill="none" version="1.1" width="13" height="13" viewBox="0 0 13 13"><g><g><path d="M9.33333,0C9.33333,0,0,0,0,0C0,0,0,12,0,12C0,12,12,12,12,12C12,12,12,2.66667,12,2.66667C12,2.66667,9.33333,0,9.33333,0C9.33333,0,9.33333,0,9.33333,0ZM6,10.6667C4.89333,10.6667,4,9.77333,4,8.66667C4,7.56,4.89333,6.66667,6,6.66667C7.10667,6.66667,8,7.56,8,8.66667C8,9.77333,7.10667,10.6667,6,10.6667C6,10.6667,6,10.6667,6,10.6667ZM8,4C8,4,1.33333,4,1.33333,4C1.33333,4,1.33333,1.33333,1.33333,1.33333C1.33333,1.33333,8,1.33333,8,1.33333C8,1.33333,8,4,8,4C8,4,8,4,8,4Z" fill="#707683" fill-opacity="1"/></g><g><g><ellipse cx="10.5" cy="10.5" rx="2.5" ry="2.5" fill="#E8ECF1" fill-opacity="1"/></g><g transform="matrix(-1,0,0,1,24.333333015441895,0)"><path d="M15.389656507720947,11.078133313465118L14.263656507720947,11.078133313465118L14.263656507720947,11.05619331346512C14.170266507720948,10.962893313465118,14.112206507720947,10.834213313465119,14.112206507720947,10.691973313465118C14.112206507720947,10.556993313465119,14.164816507720948,10.434643313465118,14.250106507720947,10.342913313465118C14.250256507720948,10.342753313465119,14.250556507720948,10.342753313465119,14.250856507720947,10.34260331346512C14.251146507720946,10.342123313465118,14.251876507720947,10.341813313465119,14.252316507720947,10.341643313465118C14.281196507720948,10.310703313465119,14.313746507720946,10.283073313465119,14.349406507720946,10.260033313465119C14.502776507720947,10.11005331346512,14.599556507720948,9.894553313465119,14.599556507720948,9.654583313465118C14.599556507720948,9.20101931346512,14.256596507720946,8.833333313465118,13.833336507720947,8.833333313465118C13.410076507720948,8.833333313465118,13.067108507720947,9.20101931346512,13.067108507720947,9.654583313465118C13.067108507720947,9.894553313465119,13.163898507720948,10.11005331346512,13.317416507720948,10.260033313465119C13.353066507720946,10.283073313465119,13.385466507720947,10.310703313465119,13.414496507720948,10.341643313465118C13.415086507720947,10.341813313465119,13.415526507720948,10.342123313465118,13.416116507720947,10.34260331346512C13.416266507720948,10.342753313465119,13.416416507720948,10.342753313465119,13.416706507720948,10.342913313465118C13.502006507720948,10.434643313465118,13.554456507720948,10.556993313465119,13.554456507720948,10.691973313465118C13.554456507720948,10.834213313465119,13.496396507720947,10.962883313465118,13.403006507720947,11.05619331346512L13.403006507720947,11.078133313465118L12.277154507720947,11.078133313465118C12.216165307720948,11.078133313465118,12.166666507720947,11.131013313465118,12.166666507720947,11.196063313465118L12.166666507720947,11.900013313465118L15.499996507720947,11.900013313465118L15.499996507720947,11.196063313465118C15.499996507720947,11.131013313465118,15.450796507720948,11.078133313465118,15.389656507720947,11.078133313465118ZM12.313688507720947,11.993483313465118L15.352976507720948,11.993483313465118L15.352976507720948,12.166663313465119L12.313688507720947,12.166663313465119L12.313688507720947,11.993483313465118Z" fill="#707683" fill-opacity="1"/></g></g></g></svg>