<svg xmlns="http://www.w3.org/2000/svg" xmlns:xlink="http://www.w3.org/1999/xlink" fill="none" version="1.1" width="13" height="11" viewBox="0 0 13 11"><g><g><path d="M12,1.25C12,1.25,6,1.25,6,1.25C6,1.25,4.8,0,4.8,0C4.8,0,0,0,0,0C0,0,0,10,0,10C0,10,12,10,12,10C12,10,12,1.25,12,1.25C12,1.25,12,1.25,12,1.25ZM6,8.125C6,8.125,3.6,5.625,3.6,5.625C3.6,5.625,6,3.125,6,3.125C6,3.125,6,5,6,5C6,5,8.4,5,8.4,5C8.4,5,8.4,6.25,8.4,6.25C8.4,6.25,6,6.25,6,6.25C6,6.25,6,8.125,6,8.125C6,8.125,6,8.125,6,8.125Z" fill="#707683" fill-opacity="1"/></g><g><g><ellipse cx="10.5" cy="8.5" rx="2.5" ry="2.5" fill="#E8ECF1" fill-opacity="1"/></g><g transform="matrix(-1,0,0,1,24.333333015441895,0)"><path d="M15.389656507720947,9.078133313465118L14.263656507720947,9.078133313465118L14.263656507720947,9.05619331346512C14.170266507720948,8.962893313465118,14.112206507720947,8.834213313465119,14.112206507720947,8.691973313465118C14.112206507720947,8.556993313465119,14.164816507720948,8.434643313465118,14.250106507720947,8.342913313465118C14.250256507720948,8.342753313465119,14.250556507720948,8.342753313465119,14.250856507720947,8.34260331346512C14.251146507720946,8.342123313465118,14.251876507720947,8.341813313465119,14.252316507720947,8.341643313465118C14.281196507720948,8.310703313465119,14.313746507720946,8.283073313465119,14.349406507720946,8.260033313465119C14.502776507720947,8.11005331346512,14.599556507720948,7.894553313465119,14.599556507720948,7.654583313465118C14.599556507720948,7.201019313465118,14.256596507720946,6.833333313465118,13.833336507720947,6.833333313465118C13.410076507720948,6.833333313465118,13.067108507720947,7.201019313465118,13.067108507720947,7.654583313465118C13.067108507720947,7.894553313465119,13.163898507720948,8.11005331346512,13.317416507720948,8.260033313465119C13.353066507720946,8.283073313465119,13.385466507720947,8.310703313465119,13.414496507720948,8.341643313465118C13.415086507720947,8.341813313465119,13.415526507720948,8.342123313465118,13.416116507720947,8.34260331346512C13.416266507720948,8.342753313465119,13.416416507720948,8.342753313465119,13.416706507720948,8.342913313465118C13.502006507720948,8.434643313465118,13.554456507720948,8.556993313465119,13.554456507720948,8.691973313465118C13.554456507720948,8.834213313465119,13.496396507720947,8.962883313465118,13.403006507720947,9.05619331346512L13.403006507720947,9.078133313465118L12.277154507720947,9.078133313465118C12.216165307720948,9.078133313465118,12.166666507720947,9.131013313465118,12.166666507720947,9.196063313465118L12.166666507720947,9.900013313465118L15.499996507720947,9.900013313465118L15.499996507720947,9.196063313465118C15.499996507720947,9.131013313465118,15.450796507720948,9.078133313465118,15.389656507720947,9.078133313465118ZM12.313688507720947,9.993483313465118L15.352976507720948,9.993483313465118L15.352976507720948,10.166663313465119L12.313688507720947,10.166663313465119L12.313688507720947,9.993483313465118Z" fill="#707683" fill-opacity="1"/></g></g></g></svg>