<svg xmlns="http://www.w3.org/2000/svg" xmlns:xlink="http://www.w3.org/1999/xlink" fill="none" version="1.1" width="13" height="13" viewBox="0 0 13 13"><g><g><g><path d="M7.8,0C7.8,0,7.8,3,7.8,3C7.8,3,12,3,12,3C12,3,12,12,12,12C12,12,0,12,0,12C0,12,0,0,0,0C0,0,7.8,0,7.8,0C7.8,0,7.8,0,7.8,0ZM6.90476,8.6C6.90476,8.6,1.42857,8.6,1.42857,8.6C1.42857,8.6,1.42857,9.4,1.42857,9.4C1.42857,9.4,6.90476,9.4,6.90476,9.4C6.90476,9.4,6.90476,8.6,6.90476,8.6C6.90476,8.6,6.90476,8.6,6.90476,8.6ZM9.48838,6.5C9.48838,6.5,1.42857,6.5,1.42857,6.5C1.42857,6.5,1.42857,7.3,1.42857,7.3C1.42857,7.3,9.48838,7.3,9.48838,7.3C9.48838,7.3,9.48838,6.5,9.48838,6.5C9.48838,6.5,9.48838,6.5,9.48838,6.5ZM9.48838,4.4C9.48838,4.4,1.42857,4.4,1.42857,4.4C1.42857,4.4,1.42857,5.2,1.42857,5.2C1.42857,5.2,9.48838,5.2,9.48838,5.2C9.48838,5.2,9.48838,4.4,9.48838,4.4C9.48838,4.4,9.48838,4.4,9.48838,4.4ZM8.93024,0C8.93024,0,12,2.2,12,2.2C12,2.2,8.93024,2.2,8.93024,2.2C8.93024,2.2,8.93024,0,8.93024,0C8.93024,0,8.93024,0,8.93024,0Z" fill-rule="evenodd" fill="#707683" fill-opacity="1"/></g><g><path d="M10.081641650390624,9.80103L11.005111650390624,8.26532L11.510211650390625,8.26532L10.397971650390625,10.05103L11.224491650390625,10.05103L11.224491650390625,10.41837L10.280621650390625,10.41837L10.280621650390625,10.80102L11.224491650390625,10.80102L11.224491650390625,11.1684L10.280621650390625,11.1684L10.280621650390625,12L9.826541650390626,12L9.826541650390626,11.1684L8.938787650390625,11.1684L8.938787650390625,10.80102L9.826541650390626,10.80102L9.826541650390626,10.41837L8.938787650390625,10.41837L8.938787650390625,10.05103L9.709191650390625,10.05103L8.540829450390625,8.26532L9.091848650390626,8.26532L10.081641650390624,9.80103Z" fill="#E8ECF1" fill-opacity="1"/></g></g><g><g><ellipse cx="10.5" cy="10.5" rx="2.5" ry="2.5" fill="#E8ECF1" fill-opacity="1"/></g><g transform="matrix(-1,0,0,1,24.333333015441895,0)"><path d="M15.389656507720947,11.078133313465118L14.263656507720947,11.078133313465118L14.263656507720947,11.05619331346512C14.170266507720948,10.962893313465118,14.112206507720947,10.834213313465119,14.112206507720947,10.691973313465118C14.112206507720947,10.556993313465119,14.164816507720948,10.434643313465118,14.250106507720947,10.342913313465118C14.250256507720948,10.342753313465119,14.250556507720948,10.342753313465119,14.250856507720947,10.34260331346512C14.251146507720946,10.342123313465118,14.251876507720947,10.341813313465119,14.252316507720947,10.341643313465118C14.281196507720948,10.310703313465119,14.313746507720946,10.283073313465119,14.349406507720946,10.260033313465119C14.502776507720947,10.11005331346512,14.599556507720948,9.894553313465119,14.599556507720948,9.654583313465118C14.599556507720948,9.20101931346512,14.256596507720946,8.833333313465118,13.833336507720947,8.833333313465118C13.410076507720948,8.833333313465118,13.067108507720947,9.20101931346512,13.067108507720947,9.654583313465118C13.067108507720947,9.894553313465119,13.163898507720948,10.11005331346512,13.317416507720948,10.260033313465119C13.353066507720946,10.283073313465119,13.385466507720947,10.310703313465119,13.414496507720948,10.341643313465118C13.415086507720947,10.341813313465119,13.415526507720948,10.342123313465118,13.416116507720947,10.34260331346512C13.416266507720948,10.342753313465119,13.416416507720948,10.342753313465119,13.416706507720948,10.342913313465118C13.502006507720948,10.434643313465118,13.554456507720948,10.556993313465119,13.554456507720948,10.691973313465118C13.554456507720948,10.834213313465119,13.496396507720947,10.962883313465118,13.403006507720947,11.05619331346512L13.403006507720947,11.078133313465118L12.277154507720947,11.078133313465118C12.216165307720948,11.078133313465118,12.166666507720947,11.131013313465118,12.166666507720947,11.196063313465118L12.166666507720947,11.900013313465118L15.499996507720947,11.900013313465118L15.499996507720947,11.196063313465118C15.499996507720947,11.131013313465118,15.450796507720948,11.078133313465118,15.389656507720947,11.078133313465118ZM12.313688507720947,11.993483313465118L15.352976507720948,11.993483313465118L15.352976507720948,12.166663313465119L12.313688507720947,12.166663313465119L12.313688507720947,11.993483313465118Z" fill="#707683" fill-opacity="1"/></g></g></g></svg>