<svg xmlns="http://www.w3.org/2000/svg" xmlns:xlink="http://www.w3.org/1999/xlink" fill="none" version="1.1" width="12" height="12" viewBox="0 0 12 12"><g><g><path d="M7.8,0C7.8,0,7.8,3,7.8,3C7.8,3,12,3,12,3C12,3,12,12,12,12C12,12,0,12,0,12C0,12,0,0,0,0C0,0,7.8,0,7.8,0C7.8,0,7.8,0,7.8,0ZM6.90476,8.6C6.90476,8.6,1.42857,8.6,1.42857,8.6C1.42857,8.6,1.42857,9.4,1.42857,9.4C1.42857,9.4,6.90476,9.4,6.90476,9.4C6.90476,9.4,6.90476,8.6,6.90476,8.6C6.90476,8.6,6.90476,8.6,6.90476,8.6ZM9.48838,6.5C9.48838,6.5,1.42857,6.5,1.42857,6.5C1.42857,6.5,1.42857,7.3,1.42857,7.3C1.42857,7.3,9.48838,7.3,9.48838,7.3C9.48838,7.3,9.48838,6.5,9.48838,6.5C9.48838,6.5,9.48838,6.5,9.48838,6.5ZM9.48838,4.4C9.48838,4.4,1.42857,4.4,1.42857,4.4C1.42857,4.4,1.42857,5.2,1.42857,5.2C1.42857,5.2,9.48838,5.2,9.48838,5.2C9.48838,5.2,9.48838,4.4,9.48838,4.4C9.48838,4.4,9.48838,4.4,9.48838,4.4ZM8.93024,0C8.93024,0,12,2.2,12,2.2C12,2.2,8.93024,2.2,8.93024,2.2C8.93024,2.2,8.93024,0,8.93024,0C8.93024,0,8.93024,0,8.93024,0Z" fill-rule="evenodd" fill="#707683" fill-opacity="1"/></g><g><path d="M10.081641650390624,9.80103L11.005111650390624,8.26532L11.510211650390625,8.26532L10.397971650390625,10.05103L11.224491650390625,10.05103L11.224491650390625,10.41837L10.280621650390625,10.41837L10.280621650390625,10.80102L11.224491650390625,10.80102L11.224491650390625,11.1684L10.280621650390625,11.1684L10.280621650390625,12L9.826541650390626,12L9.826541650390626,11.1684L8.938787650390625,11.1684L8.938787650390625,10.80102L9.826541650390626,10.80102L9.826541650390626,10.41837L8.938787650390625,10.41837L8.938787650390625,10.05103L9.709191650390625,10.05103L8.540829450390625,8.26532L9.091848650390626,8.26532L10.081641650390624,9.80103Z" fill="#E8ECF1" fill-opacity="1"/></g></g></svg>