<svg xmlns="http://www.w3.org/2000/svg" xmlns:xlink="http://www.w3.org/1999/xlink" fill="none" version="1.1" width="12" height="12" viewBox="0 0 12 12"><g><path d="M10.8,0C10.8,0,1.2,0,1.2,0C0.54,0,0.00599999,0.54,0.00599999,1.2C0.00599999,1.2,0,12,0,12C0,12,2.4,9.6,2.4,9.6C2.4,9.6,10.8,9.6,10.8,9.6C11.46,9.6,12,9.06,12,8.4C12,8.4,12,1.2,12,1.2C12,0.54,11.46,0,10.8,0C10.8,0,10.8,0,10.8,0ZM4.2,5.4C4.2,5.4,3,5.4,3,5.4C3,5.4,3,4.2,3,4.2C3,4.2,4.2,4.2,4.2,4.2C4.2,4.2,4.2,5.4,4.2,5.4C4.2,5.4,4.2,5.4,4.2,5.4ZM6.6,5.4C6.6,5.4,5.4,5.4,5.4,5.4C5.4,5.4,5.4,4.2,5.4,4.2C5.4,4.2,6.6,4.2,6.6,4.2C6.6,4.2,6.6,5.4,6.6,5.4C6.6,5.4,6.6,5.4,6.6,5.4ZM9,5.4C9,5.4,7.8,5.4,7.8,5.4C7.8,5.4,7.8,4.2,7.8,4.2C7.8,4.2,9,4.2,9,4.2C9,4.2,9,5.4,9,5.4C9,5.4,9,5.4,9,5.4Z" fill="#707683" fill-opacity="1"/></g></svg>