<svg t="1685974852571" class="icon" viewBox="0 0 1024 1024" version="1.1" xmlns="http://www.w3.org/2000/svg" p-id="14297" width="200" height="200"><path d="M270.628571 392.996571a43.885714 43.885714 0 0 1 4.608 56.612572L270.628571 454.948571 181.248 544.402286a212.114286 212.114286 0 0 0 290.889143 308.516571l9.069714-8.557714 89.6-89.6a43.885714 43.885714 0 0 1 66.706286 56.612571l-4.608 5.485715-89.6 89.6a299.885714 299.885714 0 0 1-434.468572-413.257143l10.313143-10.825143 89.453715-89.380572a43.885714 43.885714 0 0 1 62.025142 0z m370.322286-9.508571a43.885714 43.885714 0 0 1 0 62.098286L445.366857 641.097143a43.885714 43.885714 0 1 1-62.025143-62.025143l195.510857-195.584a43.885714 43.885714 0 0 1 62.098286 0z m264.338286-263.168a299.885714 299.885714 0 0 1 10.386286 413.257143l-10.386286 10.825143-92.306286 92.306285a43.885714 43.885714 0 0 1-66.706286-56.612571l4.681143-5.412571 92.306286-92.306286a212.114286 212.114286 0 0 0-290.889143-308.589714l-9.069714 8.557714L450.56 275.017143a43.885714 43.885714 0 0 1-66.706286-56.612572l4.608-5.412571L481.28 120.32a299.885714 299.885714 0 0 1 424.082286 0z" fill="#999999" p-id="14298"></path></svg>