<svg xmlns="http://www.w3.org/2000/svg" xmlns:xlink="http://www.w3.org/1999/xlink" fill="none" version="1.1" width="599" height="1299" viewBox="0 0 599 1299"><defs><clipPath id="master_svg0_516_37804"><rect x="0" y="0" width="599" height="1299" rx="0"/></clipPath><filter id="master_svg1_516_38096" filterUnits="objectBoundingBox" color-interpolation-filters="sRGB" x="-400" y="-400" width="1841" height="2321.000244140625"><feFlood flood-opacity="0" result="BackgroundImageFix"/><feBlend mode="normal" in="SourceGraphic" in2="BackgroundImageFix" result="shape"/><feGaussianBlur stdDeviation="100" result="effect1_foregroundBlur"/></filter><radialGradient cx="0" cy="0" r="1" gradientUnits="userSpaceOnUse" id="master_svg2_110_08022" gradientTransform="translate(178.49963581562042 254.5001220703125) rotate(125.55503729244109) scale(575.2514943934401 297.80894000293864)"><stop offset="19.069601595401764%" stop-color="#7280FF" stop-opacity="1"/><stop offset="32.30181634426117%" stop-color="#E5C9F5" stop-opacity="1"/><stop offset="37.54643797874451%" stop-color="#7DA7CE" stop-opacity="1"/><stop offset="56.1318039894104%" stop-color="#97E1D4" stop-opacity="1"/></radialGradient><filter id="master_svg3_516_38095" filterUnits="objectBoundingBox" color-interpolation-filters="sRGB" x="-360" y="-360" width="984" height="838"><feFlood flood-opacity="0" result="BackgroundImageFix"/><feBlend mode="normal" in="SourceGraphic" in2="BackgroundImageFix" result="shape"/><feGaussianBlur stdDeviation="90" result="effect1_foregroundBlur"/></filter><radialGradient cx="0" cy="0" r="1" gradientUnits="userSpaceOnUse" id="master_svg4_110_08239" gradientTransform="translate(734.8882713317871 1210.8268737792969) rotate(90) scale(1544.7581787109375 687.2457885742188)"><stop offset="0%" stop-color="#C1C6FF" stop-opacity="1"/><stop offset="32.29166567325592%" stop-color="#F9F4FF" stop-opacity="1"/><stop offset="65.625%" stop-color="#FFFFFF" stop-opacity="1"/><stop offset="100%" stop-color="#FFFFFF" stop-opacity="1"/></radialGradient></defs><g><g clip-path="url(#master_svg0_516_37804)"><rect x="0" y="0" width="599" height="1299" rx="0" fill="#FFFFFF" fill-opacity="1"/><rect x="0" y="0" width="599" height="1299" rx="0" fill="#000000" fill-opacity="0.20000000298023224"/><g><g filter="url(#master_svg1_516_38096)"><path d="M698.99951171875,130.125C698.99951171875,618.8299999999999,465.96351171875006,1015,178.49951171875,1015C-108.96448828125,1015,-342.00048828125,618.8299999999999,-342.00048828125,130.125C-342.00048828125,-358.578,-108.96448828125,-2.8249999999999886,178.49951171875,-2.8249999999999886C465.96351171875006,-2.8249999999999886,355.25951171875,-1218.983,698.99951171875,130.125C698.99951171875,130.125,698.99951171875,130.125,698.99951171875,130.125Z" fill="url(#master_svg2_110_08022)" fill-opacity="1"/></g><g filter="url(#master_svg3_516_38095)"><ellipse cx="352.001220703125" cy="59" rx="132" ry="59" fill="#DEFAFF" fill-opacity="1"/></g></g><g transform="matrix(0.879454493522644,0.47598299384117126,-0.47598299384117126,0.879454493522644,-153.2025350448016,-62.93092985860278)"><path d="M1422.1324827575684,882.3886950683593C1422.1324827575684,1258.4686950683595,1076.3324827575684,2113.9586950683592,431.44548275756836,2755.5886950683594C2.6853827575683624,2402.9586950683592,49.11373275756836,723.1086950683593,49.11373275756836,347.0246950683594C49.11373275756836,-29.056304931640625,337.8384827575684,-333.9313049316406,693.9974827575684,-333.9313049316406C1050.1524827575684,-333.9313049316406,1422.1324827575684,506.30569506835934,1422.1324827575684,882.3886950683593C1422.1324827575684,882.3886950683593,1422.1324827575684,882.3886950683593,1422.1324827575684,882.3886950683593Z" fill="url(#master_svg4_110_08239)" fill-opacity="0.5"/></g></g></g></svg>