<svg xmlns="http://www.w3.org/2000/svg" xmlns:xlink="http://www.w3.org/1999/xlink" fill="none" version="1.1" width="13" height="16" viewBox="0 0 13 16"><g><path d="M0.928575,14.2223C0.928575,14.6937,1.12423,15.1459,1.47252,15.4793C1.8208,15.8127,2.29317,16,2.78572,16C2.78572,16,10.2143,16,10.2143,16C10.7068,16,11.1792,15.8127,11.5275,15.4793C11.8757,15.1459,12.0714,14.6937,12.0714,14.2223C12.0714,14.2223,12.0714,3.55556,12.0714,3.55556C12.0714,3.55556,0.928575,3.55556,0.928575,3.55556C0.928575,3.55556,0.928575,14.2223,0.928575,14.2223C0.928575,14.2223,0.928575,14.2223,0.928575,14.2223ZM3.21286,7.89331C3.21286,7.89331,4.52214,6.64,4.52214,6.64C4.52214,6.64,6.5,8.52444,6.5,8.52444C6.5,8.52444,8.46858,6.64,8.46858,6.64C8.46858,6.64,9.77784,7.89331,9.77784,7.89331C9.77784,7.89331,7.80925,9.77775,7.80925,9.77775C7.80925,9.77775,9.77784,11.6623,9.77784,11.6623C9.77784,11.6623,8.46858,12.9156,8.46858,12.9156C8.46858,12.9156,6.5,11.0311,6.5,11.0311C6.5,11.0311,4.53143,12.9156,4.53143,12.9156C4.53143,12.9156,3.22214,11.6623,3.22214,11.6623C3.22214,11.6623,5.19072,9.77775,5.19072,9.77775C5.19072,9.77775,3.21286,7.89331,3.21286,7.89331C3.21286,7.89331,3.21286,7.89331,3.21286,7.89331ZM9.75,0.888887C9.75,0.888887,8.82142,0,8.82142,0C8.82142,0,4.17858,0,4.17858,0C4.17858,0,3.25,0.888887,3.25,0.888887C3.25,0.888887,0,0.888887,0,0.888887C0,0.888887,0,2.66667,0,2.66667C0,2.66667,13,2.66667,13,2.66667C13,2.66667,13,0.888887,13,0.888887C13,0.888887,9.75,0.888887,9.75,0.888887C9.75,0.888887,9.75,0.888887,9.75,0.888887Z" fill="#707683" fill-opacity="1"/></g></svg>