<svg xmlns="http://www.w3.org/2000/svg" xmlns:xlink="http://www.w3.org/1999/xlink" fill="none" version="1.1" width="24" height="24" viewBox="0 0 24 24"><defs><clipPath id="master_svg0_35_7006"><rect x="0" y="0" width="24" height="24" rx="0"/></clipPath></defs><g style="mix-blend-mode:passthrough" clip-path="url(#master_svg0_35_7006)"><g style="mix-blend-mode:passthrough"><path d="M7.24742,3.341495C7.43731,3.12448,7.71164,3,8,3C8,3,21,3,21,3C21.7957,3,22.5587,3.31607,23.1213,3.87868C23.6839,4.44129,24,5.20435,24,6C24,6,24,18,24,18C24,18.7957,23.6839,19.5587,23.1213,20.1213C22.5587,20.6839,21.7957,21,21,21C21,21,8,21,8,21C7.71164,21,7.43731,20.8755,7.24742,20.6585C7.24742,20.6585,0.247423,12.6585,0.247423,12.6585C-0.0824744,12.28148,-0.0824744,11.71852,0.247423,11.3415C0.247423,11.3415,7.24742,3.341495,7.24742,3.341495C7.24742,3.341495,7.24742,3.341495,7.24742,3.341495ZM8.45377,5C8.45377,5,2.32877,12,2.32877,12C2.32877,12,8.45377,19,8.45377,19C8.45377,19,21,19,21,19C21.2652,19,21.5196,18.8946,21.7071,18.7071C21.8946,18.5196,22,18.2652,22,18C22,18,22,6,22,6C22,5.734780000000001,21.8946,5.48043,21.7071,5.29289C21.5196,5.10536,21.2652,5,21,5C21,5,8.45377,5,8.45377,5C8.45377,5,8.45377,5,8.45377,5ZM11.2929,8.29289C11.6834,7.90237,12.3166,7.90237,12.7071,8.29289C12.7071,8.29289,15,10.58579,15,10.58579C15,10.58579,17.2929,8.29289,17.2929,8.29289C17.6834,7.90237,18.3166,7.90237,18.7071,8.29289C19.0976,8.68342,19.0976,9.31658,18.7071,9.70711C18.7071,9.70711,16.4142,12,16.4142,12C16.4142,12,18.7071,14.2929,18.7071,14.2929C19.0976,14.6834,19.0976,15.3166,18.7071,15.7071C18.3166,16.0976,17.6834,16.0976,17.2929,15.7071C17.2929,15.7071,15,13.4142,15,13.4142C15,13.4142,12.7071,15.7071,12.7071,15.7071C12.3166,16.0976,11.6834,16.0976,11.2929,15.7071C10.9024,15.3166,10.9024,14.6834,11.2929,14.2929C11.2929,14.2929,13.5858,12,13.5858,12C13.5858,12,11.2929,9.70711,11.2929,9.70711C10.9024,9.31658,10.9024,8.68342,11.2929,8.29289C11.2929,8.29289,11.2929,8.29289,11.2929,8.29289Z" fill-rule="evenodd" fill="#000000" fill-opacity="1"/></g></g></svg>