<svg xmlns="http://www.w3.org/2000/svg" xmlns:xlink="http://www.w3.org/1999/xlink" fill="none" version="1.1" width="24" height="24" viewBox="0 0 24 24"><defs><clipPath id="master_svg0_35_6997"><rect x="0" y="0" width="24" height="24" rx="0"/></clipPath></defs><g style="mix-blend-mode:passthrough" clip-path="url(#master_svg0_35_6997)"><g style="mix-blend-mode:passthrough"><path d="M2,6C2,5.447715,2.447715,5,3,5C3,5,21,5,21,5C21.5523,5,22,5.447715,22,6C22,6.55228,21.5523,7,21,7C21,7,3,7,3,7C2.447715,7,2,6.55228,2,6C2,6,2,6,2,6ZM2,12C2,11.44772,2.447715,11,3,11C3,11,21,11,21,11C21.5523,11,22,11.44772,22,12C22,12.55228,21.5523,13,21,13C21,13,3,13,3,13C2.447715,13,2,12.55228,2,12C2,12,2,12,2,12ZM2,18C2,17.447699999999998,2.447715,17,3,17C3,17,21,17,21,17C21.5523,17,22,17.447699999999998,22,18C22,18.552300000000002,21.5523,19,21,19C21,19,3,19,3,19C2.447715,19,2,18.552300000000002,2,18C2,18,2,18,2,18Z" fill-rule="evenodd" fill="#000000" fill-opacity="1"/></g></g></svg>