<svg xmlns="http://www.w3.org/2000/svg" xmlns:xlink="http://www.w3.org/1999/xlink" fill="none" version="1.1" width="24" height="24" viewBox="0 0 24 24"><defs><clipPath id="master_svg0_35_7001"><rect x="0" y="0" width="24" height="24" rx="0"/></clipPath></defs><g style="mix-blend-mode:passthrough" clip-path="url(#master_svg0_35_7001)"><g style="mix-blend-mode:passthrough"><path d="M1.2928935556068422,1.2928935556068422C1.539225555606842,1.046560955606842,1.895999555606842,0.9461768556068421,2.234639555606842,1.027917755606842C2.234639555606842,1.027917755606842,16.734679555606842,4.527919555606842,16.734679555606842,4.527919555606842C17.11317955560684,4.619279555606842,17.40417955560684,4.922059555606841,17.48057955560684,5.303879555606842C17.48057955560684,5.303879555606842,18.633679555606843,11.069279555606842,18.633679555606843,11.069279555606842C18.99267955560684,10.928139555606842,19.41687955560684,11.002679555606843,19.707079555606843,11.292879555606842C19.707079555606843,11.292879555606842,22.707079555606843,14.292879555606842,22.707079555606843,14.292879555606842C23.09767955560684,14.683379555606843,23.09767955560684,15.316579555606841,22.707079555606843,15.707079555606843C22.707079555606843,15.707079555606843,15.707079555606843,22.707079555606843,15.707079555606843,22.707079555606843C15.316579555606841,23.09767955560684,14.683379555606843,23.09767955560684,14.292879555606842,22.707079555606843C14.292879555606842,22.707079555606843,11.292879555606842,19.707079555606843,11.292879555606842,19.707079555606843C11.002679555606843,19.41687955560684,10.928139555606842,18.99267955560684,11.069279555606842,18.633679555606843C11.069279555606842,18.633679555606843,5.303879555606842,17.48057955560684,5.303879555606842,17.48057955560684C4.922059555606841,17.40417955560684,4.619279555606842,17.11317955560684,4.527919555606842,16.734679555606842C4.527919555606842,16.734679555606842,1.027917755606842,2.234639555606842,1.027917755606842,2.234639555606842C0.9461768556068421,1.895999555606842,1.046560955606842,1.539225555606842,1.2928935556068422,1.2928935556068422C1.2928935556068422,1.2928935556068422,1.2928935556068422,1.2928935556068422,1.2928935556068422,1.2928935556068422ZM12.671279555606842,16.914479555606842C12.671279555606842,16.914479555606842,16.914479555606842,12.671279555606842,16.914479555606842,12.671279555606842C16.914479555606842,12.671279555606842,15.644679555606842,6.322259555606842,15.644679555606842,6.322259555606842C15.644679555606842,6.322259555606842,5.220229555606842,3.806019555606842,5.220229555606842,3.806019555606842C5.220229555606842,3.806019555606842,9.706579555606842,8.292369555606843,9.706579555606842,8.292369555606843C10.098219555606843,8.104949555606842,10.536849555606842,7.999999555606842,10.999979555606842,7.999999555606842C12.656879555606842,7.999999555606842,13.999979555606842,9.343149555606843,13.999979555606842,10.999979555606842C13.999979555606842,12.656879555606842,12.656879555606842,13.999979555606842,10.999979555606842,13.999979555606842C9.343149555606843,13.999979555606842,7.999999555606842,12.656879555606842,7.999999555606842,10.999979555606842C7.999999555606842,10.536849555606842,8.104949555606842,10.098219555606843,8.292369555606843,9.706579555606842C8.292369555606843,9.706579555606842,3.806019555606842,5.220229555606842,3.806019555606842,5.220229555606842C3.806019555606842,5.220229555606842,6.322259555606842,15.644679555606842,6.322259555606842,15.644679555606842C6.322259555606842,15.644679555606842,12.671279555606842,16.914479555606842,12.671279555606842,16.914479555606842C12.671279555606842,16.914479555606842,12.671279555606842,16.914479555606842,12.671279555606842,16.914479555606842ZM10.280619555606842,10.305379555606843C10.106879555606842,10.485279555606843,9.999999555606841,10.730159555606843,9.999999555606841,10.999979555606842C9.999999555606841,11.552279555606843,10.447709555606842,11.999979555606842,10.999979555606842,11.999979555606842C11.552279555606843,11.999979555606842,11.999979555606842,11.552279555606843,11.999979555606842,10.999979555606842C11.999979555606842,10.447709555606842,11.552279555606843,9.999999555606841,10.999979555606842,9.999999555606841C10.730159555606843,9.999999555606841,10.485279555606843,10.106879555606842,10.305379555606843,10.280619555606842C10.301339555606843,10.284809555606842,10.297239555606842,10.288969555606842,10.293109555606842,10.293109555606842C10.288969555606842,10.297239555606842,10.284809555606842,10.301339555606843,10.280619555606842,10.305379555606843C10.280619555606842,10.305379555606843,10.280619555606842,10.305379555606843,10.280619555606842,10.305379555606843ZM13.414179555606841,18.999979555606842C13.414179555606841,18.999979555606842,14.999979555606842,20.58577955560684,14.999979555606842,20.58577955560684C14.999979555606842,20.58577955560684,20.58577955560684,14.999979555606842,20.58577955560684,14.999979555606842C20.58577955560684,14.999979555606842,18.999979555606842,13.414179555606841,18.999979555606842,13.414179555606841C18.999979555606842,13.414179555606841,13.414179555606841,18.999979555606842,13.414179555606841,18.999979555606842C13.414179555606841,18.999979555606842,13.414179555606841,18.999979555606842,13.414179555606841,18.999979555606842Z" fill-rule="evenodd" fill="#000000" fill-opacity="1"/></g></g></svg>