<svg xmlns="http://www.w3.org/2000/svg" xmlns:xlink="http://www.w3.org/1999/xlink" fill="none" version="1.1" width="19" height="19" viewBox="0 0 19 19"><defs><clipPath id="master_svg0_97_6480"><rect x="0" y="0" width="19" height="19" rx="0"/></clipPath></defs><g clip-path="url(#master_svg0_97_6480)"><g><path d="M3.5385215624999997,16.62500556640625C3.5385215624999997,16.62500556640625,15.4610015625,16.62500556640625,15.4610015625,16.62500556640625C16.680201562500002,16.62500556640625,17.4402015625,15.30290556640625,16.8306015625,14.25000556640625C16.8306015625,14.25000556640625,10.8693815625,3.95039356640625,10.8693815625,3.95039356640625C10.2597915625,2.89747656640625,8.7397715625,2.89747656640625,8.130181562499999,3.95039356640625C8.130181562499999,3.95039356640625,2.1689375625,14.25000556640625,2.1689375625,14.25000556640625C1.5593535625000001,15.30290556640625,2.3193535625,16.62500556640625,3.5385215624999997,16.62500556640625C3.5385215624999997,16.62500556640625,3.5385215624999997,16.62500556640625,3.5385215624999997,16.62500556640625C3.5385215624999997,16.62500556640625,3.5385215624999997,16.62500556640625,3.5385215624999997,16.62500556640625ZM9.499771562500001,11.08330556640625C9.0643515625,11.08330556640625,8.7081015625,10.72705556640625,8.7081015625,10.291645566406249C8.7081015625,10.291645566406249,8.7081015625,8.70830556640625,8.7081015625,8.70830556640625C8.7081015625,8.27289556640625,9.0643515625,7.91664556640625,9.499771562500001,7.91664556640625C9.935211562500001,7.91664556640625,10.2914615625,8.27289556640625,10.2914615625,8.70830556640625C10.2914615625,8.70830556640625,10.2914615625,10.291645566406249,10.2914615625,10.291645566406249C10.2914615625,10.72705556640625,9.935211562500001,11.08330556640625,9.499771562500001,11.08330556640625C9.499771562500001,11.08330556640625,9.499771562500001,11.08330556640625,9.499771562500001,11.08330556640625ZM10.2914615625,14.25000556640625C10.2914615625,14.25000556640625,8.7081015625,14.25000556640625,8.7081015625,14.25000556640625C8.7081015625,14.25000556640625,8.7081015625,12.66664556640625,8.7081015625,12.66664556640625C8.7081015625,12.66664556640625,10.2914615625,12.66664556640625,10.2914615625,12.66664556640625C10.2914615625,12.66664556640625,10.2914615625,14.25000556640625,10.2914615625,14.25000556640625C10.2914615625,14.25000556640625,10.2914615625,14.25000556640625,10.2914615625,14.25000556640625Z" fill="#FF0000" fill-opacity="1"/></g></g></svg>