<svg xmlns="http://www.w3.org/2000/svg" xmlns:xlink="http://www.w3.org/1999/xlink" fill="none" version="1.1" width="12.004168510437012" height="9.773374557495117" viewBox="0 0 12.004168510437012 9.773374557495117"><g><path d="M12.0042,7.69337C12.0042,8.29337,11.7642,8.41337,10.8442,8.41337C10.6042,6.09337,9.44416,4.97337,8.24416,4.41337C9.04416,3.33337,9.08416,1.77337,8.32417,0.613367C9.24417,0.333371,10.2042,0.973367,10.4442,1.97337C10.6442,2.85337,10.2442,3.81337,9.44416,4.17337C10.9642,4.57337,12.0042,6.01337,12.0042,7.69337ZM7.08417,4.61337C8.56416,4.93337,10.2842,5.97337,10.2842,8.97337C10.2842,9.77337,9.28416,9.77337,6.04416,9.77337C2.76417,9.77337,1.80417,9.77337,1.80417,8.97337C1.80417,6.01337,3.52416,4.93337,5.00416,4.61337C3.84417,3.97337,3.44416,2.49337,4.00418,1.29337C4.56419,0.0933704,5.96417,-0.346633,7.04417,0.293374C8.12417,0.933382,8.56418,2.41337,7.96418,3.57337C7.76417,4.05337,7.44418,4.37337,7.08417,4.61337ZM3.76416,4.41337C2.56416,4.97337,1.40416,6.13337,1.16416,8.41337C0.244168,8.41337,0.00416833,8.29337,0.00416833,7.69337C-0.0758356,6.01337,1.00416,4.53337,2.52417,4.17337C1.64416,3.73337,1.24416,2.65337,1.64416,1.69337C2.00416,0.853367,2.84416,0.413375,3.68416,0.653375C2.92416,1.77337,2.96416,3.29338,3.76416,4.41337Z" fill="#AAC0E7" fill-opacity="1"/></g></svg>