<svg xmlns="http://www.w3.org/2000/svg" xmlns:xlink="http://www.w3.org/1999/xlink" fill="none" version="1.1" width="9.871500015258789" height="9.871999740600586" viewBox="0 0 9.871500015258789 9.871999740600586"><g><path d="M1.75,9.872C0.7835,9.872,0,9.0885,0,8.122C0,7.1555,0.7835,6.372,1.75,6.372C2.5425,6.372,3.212,6.899,3.4275,7.622L6.25,7.622L6.25,6.622L7.25,6.622L7.25,3.743L6.1285,2.622L3.25,2.622L3.25,3.622L0.25,3.622L0.25,0.622L3.25,0.622L3.25,1.622L6.1285,1.622L7.75,0L9.8715,2.122L8.25,3.7425L8.25,6.622L9.25,6.622L9.25,9.622L6.25,9.622L6.25,8.622L3.4275,8.622C3.2125,9.345,2.5425,9.872,1.75,9.872ZM1.75,7.372C1.336,7.372,1,7.708,1,8.122C1,8.536,1.336,8.872,1.75,8.872C2.164,8.872,2.5,8.536,2.5,8.122C2.5,7.708,2.164,7.372,1.75,7.372ZM8.25,7.622L7.25,7.622L7.25,8.622L8.25,8.622L8.25,7.622ZM7.75,1.415L7.043,2.122L7.75,2.829L8.457,2.122L7.75,1.415ZM2.25,1.622L1.25,1.622L1.25,2.622L2.25,2.622L2.25,1.622Z" fill="#AAC0E7" fill-opacity="1"/></g></svg>