<svg xmlns="http://www.w3.org/2000/svg" xmlns:xlink="http://www.w3.org/1999/xlink" fill="none" version="1.1" width="88" height="79" viewBox="0 0 88 79"><defs><linearGradient x1="1.0002814531326294" y1="0.5001747012138367" x2="0.0001180125618702732" y2="0.5001747012138367" id="master_svg0_9_8219"><stop offset="0.000011000000199601345%" stop-color="#F5F5FF" stop-opacity="1"/><stop offset="100%" stop-color="#CFCFF2" stop-opacity="1"/></linearGradient><linearGradient x1="1.0012081861495972" y1="0.50020831823349" x2="0.00019940266793128103" y2="0.50020831823349" id="master_svg1_9_8222"><stop offset="0.000011000000199601345%" stop-color="#F5F5FF" stop-opacity="1"/><stop offset="100%" stop-color="#CFCFF2" stop-opacity="1"/></linearGradient><linearGradient x1="0.9896847009658813" y1="0.47837385535240173" x2="0.022557241842150688" y2="0.5279722809791565" id="master_svg2_9_8225"><stop offset="0.000011000000199601345%" stop-color="#F5F5FF" stop-opacity="1"/><stop offset="100%" stop-color="#CFCFF2" stop-opacity="1"/></linearGradient><linearGradient x1="0.6775025725364685" y1="-0.06495398283004761" x2="0.32273367047309875" y2="0.8718147277832031" id="master_svg3_9_8267"><stop offset="0%" stop-color="#F788A8" stop-opacity="1"/><stop offset="100%" stop-color="#FF4D7B" stop-opacity="1"/></linearGradient><linearGradient x1="0.4874487519264221" y1="0.0860518217086792" x2="0.5358651280403137" y2="0.9629848003387451" id="master_svg4_9_8282"><stop offset="0%" stop-color="#F788A8" stop-opacity="1"/><stop offset="100%" stop-color="#FF4D7B" stop-opacity="1"/></linearGradient><linearGradient x1="1.4639254808425903" y1="0.4008646309375763" x2="-0.45195242762565613" y2="0.5988055467605591" id="master_svg5_9_8285"><stop offset="0%" stop-color="#F788A8" stop-opacity="1"/><stop offset="100%" stop-color="#FF4D7B" stop-opacity="1"/></linearGradient><linearGradient x1="0.5048500895500183" y1="0.6117551326751709" x2="0.4967179000377655" y2="0.9624853134155273" id="master_svg6_9_8288"><stop offset="0.3603599965572357%" stop-color="#FCB3B3" stop-opacity="1"/><stop offset="100%" stop-color="#FC8E8E" stop-opacity="1"/></linearGradient><linearGradient x1="0.49691078066825867" y1="0.2991042733192444" x2="0.506772518157959" y2="0.9393733739852905" id="master_svg7_9_8291"><stop offset="0.3603599965572357%" stop-color="#FCB3B3" stop-opacity="1"/><stop offset="100%" stop-color="#FC8E8E" stop-opacity="1"/></linearGradient><linearGradient x1="-0.0008234706474468112" y1="0.49970248341560364" x2="1.0012863874435425" y2="0.49970248341560364" id="master_svg8_9_8294"><stop offset="0.3603599965572357%" stop-color="#FCB3B3" stop-opacity="1"/><stop offset="100%" stop-color="#FC8E8E" stop-opacity="1"/></linearGradient><linearGradient x1="0.0001285223406739533" y1="0.500030517578125" x2="1.0000154972076416" y2="0.500030517578125" id="master_svg9_9_8297"><stop offset="0%" stop-color="#4048C8" stop-opacity="1"/><stop offset="100%" stop-color="#2D32A4" stop-opacity="1"/></linearGradient><linearGradient x1="0.9602131843566895" y1="1.4338626861572266" x2="0.9242724776268005" y2="1.3647654056549072" id="master_svga_9_8300"><stop offset="0%" stop-color="#4048C8" stop-opacity="1"/><stop offset="100%" stop-color="#2D32A4" stop-opacity="1"/></linearGradient></defs><g style="mix-blend-mode:passthrough"><g style="mix-blend-mode:passthrough"><g><path d="M70.83410691796875,60.99536134902344C70.69702151796875,61.094558249023436,70.66735841796876,61.28562924902344,70.76739501796875,61.42158524902344C70.86743191796874,61.55754124902344,71.06011991796875,61.586929249023434,71.19720491796875,61.48773224902344C71.33435091796875,61.38851924902344,71.36395291796875,61.19744824902344,71.26391591796875,61.061493249023435C71.16387891796874,60.92553714902344,70.97119091796876,60.89614864902344,70.83410691796875,60.99536134902344Z" fill="#FFFFFF" fill-opacity="1"/></g></g><g style="mix-blend-mode:passthrough"><g><path d="M81.37939109375,67.19044001464843C82.10193109375,67.04344001464844,82.84668109375,67.11694001464843,83.58404109375,67.11694001464843C84.01013109375,67.11694001464843,84.45477109375,67.09124001464843,84.83270109375,66.89284001464844C84.98834109375,66.81194001464844,85.13281109375,66.70174001464844,85.21808109375,66.54744001464843C85.41815109375,66.19464001464844,85.24768109375,65.75374001464844,85.27362109375,65.34954001464844C85.31811109375,64.62935001464844,85.95911109375,64.10759001464844,86.55939109375,63.70340001464844C87.15961109375,63.29921001464844,87.82660109375,62.84358001464844,87.97851109375,62.13809001464844C88.04889109375,61.814740014648436,87.94885109375,61.41423001464844,87.64130109375,61.29297001464844C87.40417109375,61.201110014648435,87.08551109375,61.289310014648436,86.92248109375,61.09456001464844C86.85577109375,61.01740001464844,86.83728109375,60.910840014648436,86.82245109375,60.80795001464844C86.59643109375,59.21693001464844,86.99292109375,57.54507001464844,86.46673109375,56.02754201464844C86.34814109375,55.68582201464844,86.15918109375,55.33306901464844,85.82202109375,55.19345091464844C85.55524109375,55.083206214648435,85.24029109375,55.134658813648436,84.99573109375,55.28163101464844C84.74750109375,55.428604014648435,84.56592109375,55.66009501464844,84.43256109375,55.913635014648435C84.12500109375,56.49786001464844,84.06940109375,57.18498001464844,84.11389109375,57.84271001464844C84.15832109375,58.50043001464844,84.29541109375,59.15080001464844,84.35101109375,59.80852001464844C84.36212109375,59.94080001464844,84.36957109375,60.07307001464844,84.32135109375,60.19801001464844C84.21393109375,60.484600014648436,83.85449109375,60.635250014648435,83.78412109375,60.932890014648436C83.03937109375,60.95126001464844,82.75775109375,59.727680014648435,82.01300109375,59.71666001464844C81.92407109375,59.71666001464844,81.82397109375,59.73869001464844,81.76471109375,59.80852001464844C81.72766109375,59.85260001464844,81.71283109375,59.91139001464844,81.69800109375,59.96652001464844C81.62390109374999,60.297210014648435,81.65356109375,60.646290014648436,81.77582109375,60.962280014648435C81.90924109375,61.30400001464844,82.15375109375,61.61266001464844,82.18713109375,61.980100014648436C82.19824109375,62.097670014648436,82.18713109375,62.218930014648436,82.12787109375,62.32550001464844C82.00928109375,62.53494001464844,81.73877109375,62.61209001464844,81.49426109375,62.60475001464844C81.24969109375,62.601070014648435,81.00885109375,62.53860001464844,80.76800109375,62.564330014648434C80.38635109375,62.60475001464844,80.05285609375,62.86563001464844,79.84539809375,63.188980014648436C79.63787809375,63.51233001464844,79.54156509375,63.89079001464844,79.47113009375,64.26558001464844C79.34143069375,64.94536001464844,79.29699709375,65.64354001464844,79.32666015375,66.33424001464844C79.35626219375,66.95154001464843,79.37481689375,67.85554001464844,79.68603509375,68.39564001464844C80.08990509375,67.75264001464843,80.61609109375,67.34474001464844,81.37939109375,67.19044001464843Z" fill="url(#master_svg0_9_8219)" fill-opacity="1"/></g></g><g style="mix-blend-mode:passthrough"><g><path d="M78.02606228515626,66.93316545410156C77.54437228515624,65.65086545410156,75.69543228515624,65.18046545410157,75.42126228515625,63.83936545410156C75.36200228515625,63.549065454101566,75.45459228515625,63.166965454101565,75.74731228515626,63.11546545410156C75.87329228515625,63.09346545410156,75.99927228515625,63.14486545410156,76.12897228515625,63.14486545410156C76.52917228515625,63.15226545410157,76.79962228515625,62.685565454101564,76.74408228515625,62.292365454101564C76.68847228515625,61.89926545410157,76.42169228515625,61.57226545410156,76.17346228515625,61.25990545410156C75.54352228515626,60.469905454101564,74.98034628515624,59.62478545410156,74.49493428515625,58.73925545410156C74.29113768515624,58.371815454101565,74.12811328515625,57.85371545410156,74.45788528515625,57.589155454101565C74.56536828515625,57.500975454101564,74.70611528515624,57.467915454101565,74.84326128515625,57.43484545410156C75.25079328515625,57.33929545410156,75.69177228515625,57.214375454101564,75.92151228515625,56.872645454101566C76.16974228515625,56.50152545410156,76.08453228515626,56.00915545410156,76.01410228515626,55.568225454101565C75.88074228515624,54.73045545410156,75.83624228515625,53.87800545410156,75.82141228515626,53.029205454101564C75.81402228515626,52.544185454101566,75.83996228515625,52.00404345410156,76.18084228515625,51.65498345410156C76.64032228515624,51.18464645410156,77.48511228515625,51.32060245410156,77.95941228515625,51.772552454101564C78.43365228515626,52.228179454101564,78.62262228515625,52.89692545410156,78.74859228515625,53.53628545410156C78.93390228515625,54.46591545410156,79.03021228515625,55.41023545410156,79.04504228515626,56.35823545410156C79.05615228515624,56.97186545410156,79.04132228515626,57.611205454101565,79.30810228515625,58.166045454101564C79.34515228515625,58.24320545410156,79.38965228515625,58.320375454101566,79.46374228515624,58.36813545410156C79.55267228515625,58.42326545410156,79.66382228515624,58.419585454101565,79.76385228515625,58.41590545410156C79.98620228515625,58.40855545410156,80.20477228515625,58.397535454101565,80.42712228515624,58.39018545410156C80.60126228515625,58.38284545410156,80.78656228515625,58.37916545410156,80.94214228515625,58.45632545410156C81.26825228515625,58.614335454101564,81.33490228515625,59.04791545410156,81.28302228515625,59.40432545410156C81.11627228515626,60.521345454101564,80.17517228515625,61.43626545410156,80.10846228515625,62.56436545410156C80.10107228515625,62.70026545410156,80.10846228515625,62.843565454101565,80.17883228515625,62.957465454101566C80.31225228515625,63.17426545410156,80.60498228515625,63.214665454101564,80.81250228515626,63.365365454101564C81.06445228515625,63.545365454101564,81.16815228515625,63.88346545410156,81.13855228515625,64.19206545410157C81.10888228515626,64.50076545410157,80.96441228515624,64.78366545410157,80.80133228515625,65.04826545410157C80.30487228515625,65.86766545410157,79.63421228515625,66.56206545410156,79.07470228515625,67.33366545410156C78.91162228515626,67.55786545410156,78.70416228515624,68.14576545410156,78.34845228515626,68.00246545410155C78.03351228515625,67.87016545410157,78.13354228515625,67.21616545410156,78.02606228515626,66.93316545410156Z" fill="url(#master_svg1_9_8222)" fill-opacity="1"/></g></g><g style="mix-blend-mode:passthrough"><g><path d="M74.1392200390625,66.65394355957031C73.91693003906249,66.66130355957031,73.6945800390625,66.6833535595703,73.4759500390625,66.64660355957031C73.2684900390625,66.60986355957031,73.0720800390625,66.51800355957032,72.8831200390625,66.41879355957032C72.5941200390625,66.26446355957032,72.3088400390625,66.08441355957031,72.1272600390625,65.81617355957032C71.9420200390625,65.54795355957032,71.8826900390625,65.17683355957031,72.0531600390625,64.90124355957032C72.2346800390625,64.61097355957031,72.6274400390625,64.4823735595703,72.7571400390625,64.17004355957032C72.8646200390625,63.90916355957031,72.7497600390625,63.60051355957031,72.5422400390625,63.40576355957031C72.3384400390625,63.21103355957031,72.0605500390625,63.111813559570315,71.7901000390625,63.03097355957031C71.0601200390625,62.81785355957031,70.2375500390625,62.678233559570316,69.7558600390625,62.09767355957031C69.6409900390625,61.96171355957031,69.5520600390625,61.79637355957031,69.5595100390625,61.61999355957031C69.5780000390625,61.22683355957031,70.0634200390625,60.881443559570315,69.8855600390625,60.53238355957031C69.7744100390625,60.315583559570314,69.4816900390625,60.28251355957031,69.2371200390625,60.271483559570314C68.9073500390625,60.25311355957031,68.5701900390625,60.216373559570314,68.2663570390625,60.08409355957031C67.9625240390625,59.95181355957031,67.6957400390625,59.70562355957031,67.6068115390625,59.389613559570314C67.5660400390625,59.23896755957031,67.5660400390625,59.08097855957031,67.5660400390625,58.92297355957031C67.5660400390625,58.84580955957031,67.5697631790625,58.76496855957031,67.6216430390625,58.70617655957031C67.6586914390625,58.66577155957031,67.7105710390625,58.64739955957031,67.7624510390625,58.629028559570315C69.0259400390625,58.21014355957031,70.4376200390625,58.257904059570315,71.6677900390625,58.761306559570315C71.9864500390625,58.88990755957031,72.2940100390625,59.05157455957031,72.5385100390625,59.29409755957031C72.8831200390625,59.639483559570316,73.0609700390625,60.11348355957031,73.3574200390625,60.502973559570314C73.6538700390625,60.88879355957031,74.1799900390625,61.19745355957031,74.6246300390625,60.991673559570316C74.9581300390625,60.837343559570314,75.1174300390625,60.458873559570314,75.4064300390625,60.231083559570315C75.6139500390625,60.069393559570315,75.8881200390625,59.99223355957031,76.1511800390625,60.02530355957031C76.1882300390625,60.02897355957031,76.2290000390625,60.03631355957031,76.2549400390625,60.06204355957031C76.2846100390625,60.08776355957031,76.2957200390625,60.13186355957031,76.3031000390625,60.172273559570314C76.3809200390625,60.57280355957031,76.3772600390625,60.991673559570316,76.2846100390625,61.39218355957031C76.19196003906251,61.800053559570316,76.0141000390625,62.24466355957031,76.1993400390625,62.619443559570314C76.4254200390625,63.08241355957031,77.0553000390625,63.16693355957031,77.4258400390625,63.52702355957031C77.7630400390625,63.850373559570315,77.8445400390625,64.35376355957031,77.8704400390625,64.82042355957032C77.9297400390625,65.96316355957032,77.8593400390625,67.34474355957032,77.4999400390625,68.43972355957031C77.2739300390625,68.38832355957031,77.0367400390625,67.92161355957032,76.8589500390625,67.74893355957032C76.61804003906249,67.51008355957032,76.3402100390625,67.3043235595703,76.0437600390625,67.13897355957032C75.4657600390625,66.81562355957031,74.8024900390625,66.63559355957031,74.1392200390625,66.65394355957031Z" fill="url(#master_svg2_9_8225)" fill-opacity="1"/></g></g><g style="mix-blend-mode:passthrough"><g><path d="M79.18585205078125,71.11104790039063C79.47857705078125,69.78824790039063,79.83795205078125,67.18674790039063,80.50860205078125,65.97419790039062C80.71612205078125,65.59940790039063,81.04962205078125,65.05926790039062,81.55725205078124,64.68447790039062C81.80548205078125,64.50074790039062,82.07965205078125,64.36478790039062,82.34643205078125,64.23252790039062L83.37280205078125,63.72912790039062C83.65442205078125,63.58948790039062,83.95086205078125,63.44619790039062,84.18799205078125,63.25144790039062C84.45477205078124,63.034647900390624,84.66595205078124,62.74438790039063,84.85864205078126,62.468797900390626C85.32922205078125,61.79638790039063,85.78125205078125,61.06516790039063,85.90722205078126,60.24577790039062C86.01843205078126,59.525587900390626,85.87762205078126,58.80906790039062,85.72571205078125,58.052137900390626C85.59601205078125,57.39074790039062,85.45892205078125,56.703628900390626,85.50708205078125,56.012847900390625L85.93316205078125,56.04223630039063C85.88873205078124,56.677917900390625,86.01843205078126,57.33562790039063,86.14441205078126,57.97131790039062C86.29632205078126,58.73191790039063,86.45190205078126,59.52190790039062,86.32593205078125,60.311917900390625C86.18512205078125,61.215817900390626,85.70343205078125,61.998477900390625,85.20697205078125,62.711317900390625C84.99573205078124,63.01261790039062,84.76599205078125,63.328617900390626,84.45477205078124,63.578477900390624C84.17688205078124,63.80628790039063,83.86194205078125,63.96061790039062,83.55810205078124,64.11126790039063L82.53174205078125,64.61465790039063C82.28345205078125,64.73591790039063,82.02783205078126,64.86451790039062,81.80920205078125,65.02619790039063C81.47198205078125,65.27604790039062,81.17932205078125,65.64349790039063,80.87915205078124,66.17994790039063C80.24927205078124,67.31534790039062,79.90466305078125,69.85074790039063,79.62304705078125,71.11104790039063L79.18585205078125,71.11104790039063Z" fill="#C8C8EE" fill-opacity="1"/></g></g><g style="mix-blend-mode:passthrough"><g><path d="M71.589963203125,59.782791313476565C72.534853203125,60.591151313476566,73.242553203125,61.63101131347656,73.928043203125,62.637801313476565L73.950253203125,62.67456131347656C74.17627320312499,63.005261313476566,74.406003203125,63.34329131347656,74.683903203125,63.633571313476565C74.798763203125,63.75484131347656,74.924743203125,63.86507131347656,75.054443203125,63.982651313476566C75.184143203125,64.10023131347657,75.317503203125,64.22148131347656,75.443483203125,64.35008131347657C75.762143203125,64.68078131347656,76.006713203125,65.04455131347656,76.277163203125,65.45608131347656C76.666263203125,66.05134131347657,77.114563203125,66.74948131347656,77.459163203125,67.48805131347656C77.811153203125,68.23762131347657,78.066883203125,70.29532131347656,78.214983203125,71.10732131347656L77.781553203125,71.10732131347656C77.637023203125,70.35772131347656,77.399903203125,68.35887131347656,77.073853203125,67.66809131347657C76.736633203125,66.95526131347657,76.303103203125,66.27182131347656,75.921443203125,65.68757131347657C75.665833203125,65.29442131347656,75.428653203125,64.94534131347656,75.135923203125,64.64404131347656C75.021053203125,64.52278131347656,74.898803203125,64.41255131347657,74.769103203125,64.29498131347657C74.639463203125,64.17740131347657,74.502323203125,64.05614131347656,74.376343203125,63.923861313476564C74.072513203125,63.60786131347656,73.831663203125,63.25143131347656,73.594543203125,62.90971131347656L73.572323203125,62.87297131347656C72.905333203125,61.89191131347656,72.212463203125,60.874081313476566,71.308413203125,60.10246131347656C70.307983203125,59.24632231347656,69.133363203125,58.81642131347656,68.084777803125,58.92297331347656L68.040283203125,58.50408931347656C69.207463203125,58.38650511347656,70.500613203125,58.85316431347656,71.589963203125,59.782791313476565Z" fill="#C8C8EE" fill-opacity="1"/></g></g><g style="mix-blend-mode:passthrough"><g><path d="M78.2780187890625,71.1110357421875C78.9486687890625,67.5688357421875,78.7374887890625,63.1669357421875,77.6481327890625,60.5250257421875C77.6073607890625,60.4294857421875,77.5666507890625,60.3339557421875,77.5295407890625,60.2420957421875C77.3924557890625,59.9224257421875,77.2516477890625,59.5917157421875,77.1590577890625,59.2426457421875C76.9812011690625,58.5775757421875,76.9812011690625,57.8941357421875,76.9848632810625,57.232745742187504L77.0034179890625,52.3641357421875L77.4295047890625,52.3641357421875L77.4110107890625,57.232745742187504C77.4072877890625,57.8647457421875,77.4072877890625,58.5224757421875,77.5703127890625,59.1324157421875C77.6555787890625,59.4520857421875,77.7852167890625,59.7570657421875,77.9223017890625,60.0767357421875C77.9630737890625,60.1722857421875,78.0038487890625,60.2678257421875,78.0446187890625,60.3670157421875C79.1599087890625,63.0677357421875,79.3821987890625,67.5248357421875,78.7152687890625,71.11473574218749L78.2780187890625,71.11473574218749L78.2780187890625,71.1110357421875Z" fill="#C8C8EE" fill-opacity="1"/></g></g><g style="opacity:0.30000001192092896;mix-blend-mode:passthrough"><g><path d="M73.35742234765625,65.65451051894532C73.22033694765625,65.75372341894531,73.19067384765626,65.94479341894531,73.29071044765625,66.08074941894532C73.39074734765624,66.21669041894532,73.58343534765625,66.2460934189453,73.72052034765625,66.14688141894531C73.85760534765625,66.0476684189453,73.88726834765625,65.85659741894531,73.78723134765625,65.72065741894531C73.68719434765624,65.58470151894531,73.49450634765626,65.5552978189453,73.35742234765625,65.65451051894532Z" fill="#FFFFFF" fill-opacity="1"/></g></g><g style="opacity:0.30000001192092896;mix-blend-mode:passthrough"><g><path d="M75.08410691796875,61.43627930253906C74.94696041796875,61.53549210253906,74.91735841796876,61.72656210253906,75.01739501796875,61.86251810253906C75.11743191796874,61.99847410253906,75.31011991796875,62.02786210253906,75.44720491796875,61.92865010253906C75.58428991796875,61.82943710253906,75.61395291796875,61.638367102539064,75.51391591796875,61.50242610253906C75.41387891796874,61.362793002539064,75.22119091796876,61.33706660253906,75.08410691796875,61.43627930253906Z" fill="#FFFFFF" fill-opacity="1"/></g></g><g style="opacity:0.30000001192092896;mix-blend-mode:passthrough"><g><path d="M75.7918095546875,58.452651969140625C75.6546630546875,58.55186486914062,75.6250610546875,58.742934869140626,75.7250976546875,58.87887586914062C75.8251345546875,59.01483186914062,76.0178225546875,59.044234869140624,76.1549075546875,58.94502286914062C76.2919925546875,58.84580986914062,76.3216555546875,58.65473986914063,76.2216185546875,58.51878386914063C76.1215815546875,58.379165669140626,75.9288935546875,58.34976196914062,75.7918095546875,58.452651969140625Z" fill="#FFFFFF" fill-opacity="1"/></g></g><g style="opacity:0.30000001192092896;mix-blend-mode:passthrough"><g><path d="M77.64813224609375,62.667205845507816C77.50732424609375,62.575347945507815,77.31463624609376,62.61576843550781,77.22204594609374,62.75540114550781C77.12939454609375,62.89501914550781,77.17016601609375,63.08609014550781,77.31097424609375,63.17796314550781C77.45178224609376,63.26982114550781,77.64440924609374,63.22940014550781,77.73706024609375,63.089767145507814C77.83337424609375,62.950149145507815,77.79266324609375,62.75907914550781,77.64813224609375,62.667205845507816Z" fill="#FFFFFF" fill-opacity="1"/></g></g><g style="opacity:0.30000001192092896;mix-blend-mode:passthrough"><g><path d="M80.271484296875,59.27204898515625C80.130676296875,59.18019108515625,79.937988296875,59.22059631515625,79.845397996875,59.36022928515625C79.752746596875,59.49986228515625,79.793518066875,59.69093328515625,79.934326296875,59.78279128515625C80.075134296875,59.87464928515625,80.267761296875,59.83422828515625,80.360412296875,59.69459528515625C80.456726296875,59.55497728515625,80.416015296875,59.36390728515625,80.271484296875,59.27204898515625Z" fill="#FFFFFF" fill-opacity="1"/></g></g><g style="opacity:0.30000001192092896;mix-blend-mode:passthrough"><g><path d="M78.63372815625,55.358794922851565C78.58557115625,55.19712832285156,78.41516115625,55.10525512285156,78.25207515625,55.149353022851564C78.08905025625,55.19712832285156,77.99645995625,55.36614992285156,78.04089355625,55.527816922851564C78.08905025625,55.68949892285156,78.25952115625,55.781356922851565,78.42254615625,55.73725892285156C78.58929415625,55.68949892285156,78.68194615625,55.520476922851564,78.63372815625,55.358794922851565Z" fill="#FFFFFF" fill-opacity="1"/></g></g><g style="opacity:0.30000001192092896;mix-blend-mode:passthrough"><g><path d="M86.92248496484375,62.446746354492184C87.08184796484375,62.384277354492184,87.15594496484375,62.207901354492186,87.09295696484375,62.04991135449219C87.02996796484375,61.89190675449219,86.85211196484374,61.818420454492184,86.69274896484374,61.88087465449219C86.53344726484374,61.94334415449219,86.45935056484375,62.11972035449219,86.52233886484375,62.27772535449219C86.58532716484375,62.43203735449219,86.76318396484375,62.509201354492184,86.92248496484375,62.446746354492184Z" fill="#FFFFFF" fill-opacity="1"/></g></g><g style="opacity:0.30000001192092896;mix-blend-mode:passthrough"><g><path d="M82.36871337578125,62.85093647265625C82.38720707578125,63.01995847265625,82.53912367578125,63.14120447265625,82.70587167578125,63.12283347265625C82.87628167578124,63.10446147265625,82.99859667578124,62.95381147265625,82.98004167578125,62.78846747265625C82.96154767578125,62.61944547265625,82.80963167578125,62.49818417265625,82.64288367578125,62.51655578265625C82.47613567578125,62.53126527265625,82.35388187578125,62.68191547265625,82.36871337578125,62.85093647265625Z" fill="#FFFFFF" fill-opacity="1"/></g></g><g style="opacity:0.30000001192092896;mix-blend-mode:passthrough"><g><ellipse cx="82.36869663000107" cy="66.20567253232002" rx="0.3075394034385681" ry="0.3049767315387726" fill="#FFFFFF" fill-opacity="1"/></g></g><g style="mix-blend-mode:passthrough"><g><path d="M74.88031005484375,71.39762899023438L76.19568271484376,78.49291499023437C76.24756271484375,78.76483499023438,76.48468271484376,78.96325499023438,76.76629271484374,78.96325499023438L80.31225271484375,78.96325499023438C80.59015271484375,78.96325499023438,80.83099271484375,78.76483499023438,80.88287271484376,78.49291499023437L81.05328271484375,77.57064499023437L82.19452271484374,71.39762899023438C82.26123271484374,71.04487599023437,81.98706271484374,70.71786499023438,81.62390271484375,70.71786499023438L75.45092771484374,70.71786499023438C75.40270971484375,70.71786499023438,75.35827671484375,70.72520447023437,75.31378171484376,70.73255919023437C75.02478071484374,70.80604549023437,74.82470701484375,71.09265099023438,74.88031005484375,71.39762899023438Z" fill="#FB688F" fill-opacity="1"/></g></g><g style="mix-blend-mode:passthrough"><g><path d="M74.88031005484375,71.39762857226563L76.19568271484376,78.49293657226562C76.24756271484375,78.76482657226562,76.48468271484376,78.96324657226563,76.76629271484374,78.96324657226563L80.31225271484375,78.96324657226563C80.59015271484375,78.96324657226563,80.83099271484375,78.76482657226562,80.88287271484376,78.49293657226562L81.05328271484375,77.57064657226563C80.91253271484375,77.21055657226563,80.84955271484375,76.81004657226562,80.62347271484376,76.49772657226562C80.33447271484376,76.09721657226562,79.83795271484375,75.91715657226563,79.41186271484375,75.66729657226563C78.22619271484375,74.98017657226562,77.50366271484376,73.74189657226563,76.77002271484375,72.58813657226563C76.35132271484375,71.93041657226563,75.88440271484374,71.26535057226563,75.31750471484375,70.73623657226562C75.02478071484374,70.80604557226563,74.82470701484375,71.09265157226562,74.88031005484375,71.39762857226563Z" fill="#FF4F7C" fill-opacity="1"/></g></g><g style="mix-blend-mode:passthrough"><g><path d="M85.9035,79.00000006640624L0.285278,79.00000006640624C0.125977,79.00000006640624,0,78.87139906640625,0,78.71707106640625C0,78.55906706640624,0.125977,78.43414306640625,0.285278,78.43414306640625L85.9035,78.43414306640625C86.0629,78.43414306640625,86.1888,78.56274406640625,86.1888,78.71707106640625C86.1888,78.87507606640625,86.0629,79.00000006640624,85.9035,79.00000006640624Z" fill="#C5CCED" fill-opacity="1"/></g></g><g style="mix-blend-mode:passthrough"><g><path d="M72.74230654296875,3.15265L72.74230654296875,60.1907C72.74230654296875,61.9323,71.31950654296875,63.3396,69.56690654296875,63.3396L27.17462654296875,63.3396C25.41833654296875,63.3396,23.99920654296875,61.9286,23.99920654296875,60.1907L23.99920654296875,3.15265C23.99920654296875,1.41098,25.42199654296875,0,27.17462654296875,0L69.56690654296875,0C71.32320654296875,0.00367737,72.74230654296875,1.41465,72.74230654296875,3.15265Z" fill="#F6F6FE" fill-opacity="1"/></g></g><g style="mix-blend-mode:passthrough"><g><path d="M33.1327559375,59.5476270703125L28.9531859375,59.5476270703125C28.3269649375,59.5476270703125,27.8193359375,59.0442370703125,27.8193359375,58.4232670703125L27.8193359375,55.2338570703125C27.8193359375,54.612884070312504,28.3269649375,54.1094970703125,28.9531859375,54.1094970703125L33.1327559375,54.1094970703125C33.7589159375,54.1094970703125,34.2665359375,54.612884070312504,34.2665359375,55.2338570703125L34.2665359375,58.4232670703125C34.2665359375,59.0442370703125,33.7589159375,59.5476270703125,33.1327559375,59.5476270703125Z" fill="#DADAF5" fill-opacity="1"/></g></g><g style="mix-blend-mode:passthrough"><g><path d="M33.54772915625,54.1131591796875L32.65478515625,54.1131591796875L32.65478515625,59.5476391796875L33.54772915625,59.5476391796875C33.94421515625,59.5476391796875,34.26287515625,59.2279491796875,34.26287515625,58.8384691796875L34.26287515625,54.8260041796875C34.26654515625,54.4328311796875,33.94421515625,54.1131591796875,33.54772915625,54.1131591796875Z" fill="#C8C8EE" fill-opacity="1"/></g></g><g style="mix-blend-mode:passthrough"><g><path d="M44.6858565234375,59.54764948730469L40.5062865234375,59.54764948730469C39.8800655234375,59.54764948730469,39.3724365234375,59.04423948730469,39.3724365234375,58.42325948730469L39.3724365234375,50.58571948730469C39.3724365234375,49.96473648730469,39.8800655234375,49.46134948730469,40.5062865234375,49.46134948730469L44.6858565234375,49.46134948730469C45.3120165234375,49.46134948730469,45.8196365234375,49.96473648730469,45.8196365234375,50.58571948730469L45.8196365234375,58.42325948730469C45.8159765234375,59.04423948730469,45.3120165234375,59.54764948730469,44.6858565234375,59.54764948730469Z" fill="#FFA668" fill-opacity="1"/></g></g><g style="mix-blend-mode:passthrough"><g><path d="M45.1008297421875,49.46502685546875L44.2078857421875,49.46502685546875L44.2078857421875,59.55132685546875L45.1008297421875,59.55132685546875C45.4973157421875,59.55132685546875,45.8159757421875,59.23162685546875,45.8159757421875,58.84214685546875L45.8159757421875,50.17785685546875C45.8159757421875,49.78102085546875,45.4973157421875,49.46502685546875,45.1008297421875,49.46502685546875Z" fill="#F49758" fill-opacity="1"/></g></g><g style="mix-blend-mode:passthrough"><g><path d="M56.235225,59.54758024902344L52.055665,59.54758024902344C51.429504,59.54758024902344,50.921875,59.04428024902344,50.921875,58.423280249023435L50.921875,45.46725024902344C50.921875,44.846283249023436,51.429504,44.34288024902344,52.055665,44.34288024902344L56.235225,44.34288024902344C56.861455,44.34288024902344,57.369075,44.846283249023436,57.369075,45.46725024902344L57.369075,58.423280249023435C57.369075,59.04428024902344,56.861455,59.54758024902344,56.235225,59.54758024902344Z" fill="#FCB3B3" fill-opacity="1"/></g></g><g style="mix-blend-mode:passthrough"><g><path d="M56.653930328125,44.35023498535156L55.760986328125,44.35023498535156L55.760986328125,59.55133498535156L56.653930328125,59.55133498535156C57.050416328125,59.55133498535156,57.369076328125,59.23163498535156,57.369076328125,58.842134985351564L57.369076328125,45.06306498535156C57.369076328125,44.666228985351566,57.046696328125,44.35023498535156,56.653930328125,44.35023498535156Z" fill="#FC8E8E" fill-opacity="1"/></g></g><g style="mix-blend-mode:passthrough"><g><path d="M67.7883255859375,59.547587365722656L63.6087655859375,59.547587365722656C62.9826045859375,59.547587365722656,62.4749755859375,59.04418736572266,62.4749755859375,58.42328736572266L62.4749755859375,38.959857365722655C62.4749755859375,38.338882365722654,62.9826045859375,37.835487365722656,63.6087655859375,37.835487365722656L67.7883255859375,37.835487365722656C68.4145555859375,37.835487365722656,68.9221755859375,38.338882365722654,68.9221755859375,38.959857365722655L68.9221755859375,58.42328736572266C68.9184555859375,59.04418736572266,68.4145555859375,59.547587365722656,67.7883255859375,59.547587365722656Z" fill="#FB688F" fill-opacity="1"/></g></g><g style="mix-blend-mode:passthrough"><g><path d="M68.20336876953125,37.83916473388672L67.31036376953125,37.83916473388672L67.31036376953125,59.54766473388672L68.20336876953125,59.54766473388672C68.59979376953125,59.54766473388672,68.91845376953125,59.22796473388672,68.91845376953125,58.838464733886724L68.91845376953125,38.548324733886716C68.91845376953125,38.158836733886716,68.59979376953125,37.83916473388672,68.20336876953125,37.83916473388672Z" fill="#FF4F7C" fill-opacity="1"/></g></g><g style="mix-blend-mode:passthrough"><g><path d="M29.494140625,20.892746030761717C29.494140625,21.22711903076172,29.772033625,21.50270403076172,30.109191625,21.50270403076172L50.069640625000005,21.50270403076172C50.414240625000005,21.50270403076172,50.684740625,21.22711903076172,50.684740625,20.892746030761717C50.684740625,20.551025030761718,50.414240625000005,20.27544403076172,50.069640625000005,20.27544403076172L30.109191625,20.27544403076172C29.772033625,20.27544403076172,29.494140625,20.551025030761718,29.494140625,20.892746030761717Z" fill="#DADAF5" fill-opacity="1"/></g></g><g style="mix-blend-mode:passthrough"><g><path d="M29.494140625,24.74353033251953C29.494140625,25.077903332519533,29.772033625,25.353488332519532,30.109191625,25.353488332519532L50.069640625000005,25.353488332519532C50.414240625000005,25.353488332519532,50.684740625,25.077903332519533,50.684740625,24.74353033251953C50.684740625,24.40180933251953,50.414240625000005,24.12622833251953,50.069640625000005,24.12622833251953L30.109191625,24.12622833251953C29.772033625,24.12990570251953,29.494140625,24.40180933251953,29.494140625,24.74353033251953Z" fill="#DADAF5" fill-opacity="1"/></g></g><g style="mix-blend-mode:passthrough"><g><path d="M29.494140625,28.597999631835936C29.494140625,28.93237263183594,29.772033625,29.20795763183594,30.109191625,29.20795763183594L37.616150625,29.20795763183594C37.960750625,29.20795763183594,38.231200625,28.93237263183594,38.231200625,28.597999631835936C38.231200625,28.256278631835936,37.960750625,27.980697631835938,37.616150625,27.980697631835938L30.109191625,27.980697631835938C29.772033625,27.980697631835938,29.494140625,28.256278631835936,29.494140625,28.597999631835936Z" fill="#DADAF5" fill-opacity="1"/></g></g><g style="mix-blend-mode:passthrough"><g><path d="M62.55645265625,18.173675537109375L60.95947265625,24.210745537109375L67.05468265625,25.739305537109374C67.06952265625,25.695205537109373,67.08435265625,25.651115537109376,67.08807265625,25.603345537109377C67.84393265625,22.340465537109374,65.82452265625,19.029815537109375,62.55645265625,18.173675537109375Z" fill="#FFFFFF" fill-opacity="1"/></g></g><g style="mix-blend-mode:passthrough"><g><path d="M59.49591033203125,25.077907502441406L61.05585033203125,19.040832502441408C57.86188033203125,18.228790502441406,54.53455033203125,20.051307502441407,53.51928733203125,23.163537502441407C52.45953333203125,26.415397502441408,54.28253033203125,29.957577502441406,57.56543033203125,31.008377502441405C60.85577033203125,32.062977502441406,64.42389033203125,30.251477502441407,65.48369033203124,26.999627502441406C65.51699033203126,26.893067502441404,65.55039033203126,26.797537502441408,65.57629033203125,26.690977502441406L59.49591033203125,25.077907502441406Z" fill="#FED8D8" fill-opacity="1"/></g></g><g style="mix-blend-mode:passthrough"><g><path d="M69.2037197265625,8.252751337890626C69.2037197265625,9.130931337890626,68.8443197265625,9.924601337890625,68.2663197265625,10.501491337890625C67.6846197265625,11.078371337890625,66.88421972656249,11.431111337890625,65.9987197265625,11.431111337890625L30.7427997265625,11.431111337890625C28.9716797265625,11.431111337890625,27.5377197265625,10.009111337890625,27.5377197265625,8.252751337890626C27.5377197265625,7.374561337890626,27.8971557265625,6.5808813378906255,28.4751587265625,6.003997337890625C29.0568897265625,5.427116337890625,29.8572397265625,5.074371337890625,30.7427997265625,5.074371337890625L65.9987197265625,5.074371337890625C67.7698197265625,5.074371337890625,69.2037197265625,6.496371337890625,69.2037197265625,8.252751337890626Z" fill="#EAEAFA" fill-opacity="1"/></g></g><g style="mix-blend-mode:passthrough"><g style="mix-blend-mode:passthrough"><g><path d="M29.5867920203125,8.822271684570312C29.5497436203125,8.796551684570312,29.5274658203125,8.756131684570313,29.5274658203125,8.704691684570312C29.5274658203125,8.623861684570313,29.5941772203125,8.561391684570312,29.6757198203125,8.561391684570312C29.7201538203125,8.561391684570312,29.7460938203125,8.572421684570312,29.7683108203125,8.590801684570312C29.9165648203125,8.704691684570312,30.0721438203125,8.770831684570313,30.2648318203125,8.770831684570313C30.4575198203125,8.770831684570313,30.5797758203125,8.678981684570312,30.5797758203125,8.550381684570313L30.5797758203125,8.546691684570312C30.5797758203125,8.421771684570313,30.5093998203125,8.351951684570313,30.1796268203125,8.278461684570313C29.8016968203125,8.186607684570312,29.5904541203125,8.076370684570312,29.5904541203125,7.753021684570313L29.5904541203125,7.749351684570312C29.5904541203125,7.448043684570313,29.8424068203125,7.2386016845703125,30.1944578203125,7.2386016845703125C30.4167478203125,7.2386016845703125,30.5983258203125,7.297393784570312,30.7539058203125,7.400275684570312C30.7910158203125,7.418647684570312,30.8206158203125,7.462745684570312,30.8206158203125,7.521537684570313C30.8206158203125,7.602371684570312,30.7539058203125,7.664840684570312,30.6724258203125,7.664840684570312C30.6427658203125,7.664840684570312,30.6168258203125,7.657485684570313,30.5908858203125,7.642791684570312C30.4537968203125,7.554603684570313,30.3240968203125,7.510513684570313,30.1833498203125,7.510513684570313C30.0017698203125,7.510513684570313,29.8942868203125,7.602371684570312,29.8942868203125,7.719955684570312L29.8942868203125,7.7236246845703125C29.8942868203125,7.859580684570313,29.9758298203125,7.918372684570312,30.3167118203125,7.9992066845703125C30.6909158203125,8.091071684570313,30.8836058203125,8.223350684570313,30.8836058203125,8.513621684570312L30.8836058203125,8.517301684570313C30.8836058203125,8.844321684570312,30.6242658203125,9.042751684570312,30.2499998203125,9.042751684570312C30.0128788203125,9.046421684570312,29.7831418203125,8.969251684570313,29.5867920203125,8.822271684570312Z" fill="#C8C8EE" fill-opacity="1"/></g></g><g style="mix-blend-mode:passthrough"><g><path d="M31.14300537109375,8.362976437011719C31.14300537109375,8.770840437011719,31.44311537109375,9.050090437011718,31.82849137109375,9.050090437011718C32.03594937109375,9.050090437011718,32.18786537109375,8.980280437011718,32.30645537109375,8.870040437011719C32.32867537109375,8.848000437011718,32.34722537109375,8.814930437011718,32.34722537109375,8.778180437011718C32.34722537109375,8.70837043701172,32.29162537109375,8.65692943701172,32.22491537109375,8.65692943701172C32.19158537109375,8.65692943701172,32.16937537109375,8.667953437011718,32.14709537109375,8.68632043701172C32.06188937109375,8.75614043701172,31.96185337109375,8.800230437011718,31.83215337109375,8.800230437011718C31.63580337109375,8.800230437011718,31.48016337109375,8.682650437011718,31.44683837109375,8.465858437011718L32.28424537109375,8.465858437011718C32.36206537109375,8.465858437011718,32.42871537109375,8.403396437011718,32.42871537109375,8.31888543701172C32.42871537109375,8.013908437011718,32.22125537109375,7.668510437011719,31.79510537109375,7.668510437011719C31.41345237109375,7.668510437011719,31.14300537109375,7.980835437011719,31.14300537109375,8.359298437011718L31.14300537109375,8.362976437011719ZM31.79522737109375,7.914756437011719C31.99530037109375,7.914756437011719,32.11383037109375,8.06908443701172,32.13238537109375,8.263824437011719L31.45062237109375,8.263824437011719C31.47656237109375,8.05805943701172,31.60992437109375,7.914756437011719,31.79522737109375,7.914756437011719Z" fill-rule="evenodd" fill="#C8C8EE" fill-opacity="1"/></g></g><g style="mix-blend-mode:passthrough"><g><path d="M32.65472412109375,8.634879912109374L32.65472412109375,8.638557912109375C32.65472412109375,8.903114912109375,32.87707512109375,9.046414912109375,33.13275112109375,9.046414912109375C33.33654812109375,9.046414912109375,33.47363312109375,8.958234912109376,33.56622312109375,8.851674912109376L33.56622312109375,8.903114912109375C33.56622312109375,8.972934912109375,33.62554912109375,9.031724912109375,33.71447412109375,9.031724912109375C33.79596412109375,9.031724912109375,33.86267412109375,8.969254912109374,33.86267412109375,8.884744912109374L33.86267412109375,8.234374912109375C33.86267412109375,8.061675912109376,33.81823412109375,7.922050912109375,33.71820412109375,7.826514912109375C33.62554912109375,7.730979912109375,33.47735612109375,7.679534912109375,33.27722212109375,7.679534912109375C33.10308812109375,7.679534912109375,32.97338912109375,7.708931012109375,32.84741212109375,7.756698612109375C32.79925512109375,7.775070212109375,32.76220712109375,7.822837912109375,32.76220712109375,7.877952912109375C32.76220712109375,7.947768912109375,32.82147212109375,8.002883912109375,32.89190712109375,8.002883912109375C32.90673812109375,8.002883912109375,32.92150912109375,7.999206912109375,32.94006312109375,7.995536912109375C33.02526812109375,7.962462912109375,33.12164312109375,7.944091912109375,33.23651112109375,7.944091912109375C33.45141612109375,7.944091912109375,33.56622312109375,8.043304912109376,33.56622312109375,8.230697912109376L33.56622312109375,8.263770912109376C33.46252412109375,8.230697912109376,33.35504112109375,8.208648912109375,33.20684812109375,8.208648912109375C32.88079812109375,8.208648912109375,32.65472412109375,8.348281912109375,32.65472412109375,8.634879912109374ZM33.56994612109375,8.451194912109376L33.56994612109375,8.543052912109374C33.56994612109375,8.712074912109376,33.41430712109375,8.825984912109375,33.21051012109375,8.825984912109375C33.06597912109375,8.825984912109375,32.95111112109375,8.752494912109375,32.95111112109375,8.623885912109374L32.95111112109375,8.620215912109375C32.95111112109375,8.484260912109375,33.06970212109375,8.399749912109375,33.26611312109375,8.399749912109375C33.38836712109375,8.399749912109375,33.49212612109375,8.421798912109375,33.56994612109375,8.451194912109376Z" fill-rule="evenodd" fill="#C8C8EE" fill-opacity="1"/></g></g><g style="mix-blend-mode:passthrough"><g><path d="M34.22576904296875,7.833861912109375C34.22576904296875,7.749351512109375,34.29248044296875,7.679534912109375,34.37768604296875,7.679534912109375C34.46295204296875,7.679534912109375,34.53332504296875,7.745674112109375,34.53332504296875,7.833861912109375L34.53332504296875,7.969810912109375C34.60376004296875,7.804465912109375,34.73712204296875,7.679534912109375,34.87054404296875,7.679534912109375C34.96685804296875,7.679534912109375,35.02246104296875,7.741996812109375,35.02246104296875,7.830184912109375C35.02246104296875,7.911025912109375,34.97058104296875,7.962462912109375,34.90014604296875,7.977164912109375C34.68151904296875,8.013907912109374,34.53332504296875,8.179252912109375,34.53332504296875,8.495254912109376L34.53332504296875,8.884744912109374C34.53332504296875,8.969254912109374,34.46661404296875,9.035394912109375,34.37768604296875,9.035394912109375C34.29248044296875,9.035394912109375,34.22576904296875,8.969254912109374,34.22576904296875,8.884744912109374L34.22576904296875,7.833861912109375Z" fill="#C8C8EE" fill-opacity="1"/></g></g><g style="mix-blend-mode:passthrough"><g><path d="M35.152099609375,8.366653805175781L35.152099609375,8.36297580517578C35.152099609375,7.988189805175781,35.444824609375,7.672187805175781,35.848693609375,7.672187805175781C36.059936609375,7.672187805175781,36.204409609375,7.7383270051757815,36.315549609375,7.837531805175781C36.334109609375,7.855903805175782,36.363769609375,7.892654805175781,36.363769609375,7.944091805175781C36.363769609375,8.021255805175782,36.300779609375,8.083717805175782,36.222959609375,8.083717805175782C36.185909609375,8.083717805175782,36.152529609375,8.06902280517578,36.130309609375,8.054328805175782C36.052490609375,7.988189805175781,35.967285609375,7.940421805175781,35.845031609375,7.940421805175781C35.622680609375,7.940421805175781,35.459655609375,8.13148480517578,35.459655609375,8.36297580517578L35.459655609375,8.366653805175781C35.459655609375,8.601813805175782,35.622680609375,8.789207805175781,35.859802609375,8.789207805175781C35.982116609375,8.789207805175781,36.074706609375,8.741447805175781,36.159969609375,8.67163080517578C36.178469609375,8.656928805175781,36.208129609375,8.63855780517578,36.245179609375,8.63855780517578C36.319279609375,8.63855780517578,36.378539609375,8.69734780517578,36.378539609375,8.77083780517578C36.378539609375,8.811257805175781,36.363769609375,8.84431780517578,36.334109609375,8.866377805175782C36.215519609375,8.980277805175781,36.071044609375,9.05376780517578,35.848693609375,9.05376780517578C35.444824609375,9.050097805175781,35.152099609375,8.741447805175781,35.152099609375,8.366653805175781Z" fill="#C8C8EE" fill-opacity="1"/></g></g><g style="mix-blend-mode:passthrough"><g><path d="M36.6712646484375,7.3267898315429685C36.6712646484375,7.242279031542969,36.7379760484375,7.176139831542969,36.8231816484375,7.176139831542969C36.9084476484375,7.176139831542969,36.9788206484375,7.242279031542969,36.9788206484375,7.3267898315429685L36.9788206484375,7.900001831542969C37.0640256484375,7.778747831542969,37.1900026484375,7.668510831542969,37.3975216484375,7.668510831542969C37.6976346484375,7.668510831542969,37.8718246484375,7.870605831542969,37.8718246484375,8.175582831542968L37.8718246484375,8.88106983154297C37.8718246484375,8.965579831542968,37.8051146484375,9.031719831542969,37.7199146484375,9.031719831542969C37.6346436484375,9.031719831542969,37.5642696484375,8.965579831542968,37.5642696484375,8.88106983154297L37.5642696484375,8.26743983154297C37.5642696484375,8.061675831542969,37.4605106484375,7.944091831542969,37.2789306484375,7.944091831542969C37.1010746484375,7.944091831542969,36.9788206484375,8.065345831542968,36.9788206484375,8.271119831542968L36.9788206484375,8.88106983154297C36.9788206484375,8.965579831542968,36.9121096484375,9.031719831542969,36.8231816484375,9.031719831542969C36.7379760484375,9.031719831542969,36.6712646484375,8.965579831542968,36.6712646484375,8.88106983154297L36.6712646484375,7.3267898315429685Z" fill="#C8C8EE" fill-opacity="1"/></g></g><g style="mix-blend-mode:passthrough"><g><path d="M38.386840375,8.660606384277344C38.486877375,8.660606384277344,38.564697375,8.734092684277345,38.564697375,8.833305384277343L38.564697375,8.859024384277344C38.564697375,8.958229384277343,38.490600375,9.031723384277344,38.386840375,9.031723384277344C38.283081075,9.031723384277344,38.208984375,8.958229384277343,38.208984375,8.859024384277344L38.208984375,8.833305384277343C38.208984375,8.737770084277344,38.283081075,8.660606384277344,38.386840375,8.660606384277344Z" fill="#C8C8EE" fill-opacity="1"/></g></g><g style="mix-blend-mode:passthrough"><g><path d="M39.068604,8.660606384277344C39.16864,8.660606384277344,39.24646,8.734092684277345,39.24646,8.833305384277343L39.24646,8.859024384277344C39.24646,8.958229384277343,39.172363,9.031723384277344,39.068604,9.031723384277344C38.9648438,9.031723384277344,38.89074707,8.958229384277343,38.89074707,8.859024384277344L38.89074707,8.833305384277343C38.88708496,8.737770084277344,38.9648438,8.660606384277344,39.068604,8.660606384277344Z" fill="#C8C8EE" fill-opacity="1"/></g></g><g style="mix-blend-mode:passthrough"><g><path d="M39.74670365625,8.660606384277344C39.84674065625,8.660606384277344,39.92456065625,8.734092684277345,39.92456065625,8.833305384277343L39.92456065625,8.859024384277344C39.92456065625,8.958229384277343,39.85040265625,9.031723384277344,39.74670365625,9.031723384277344C39.64294435625,9.031723384277344,39.56884765625,8.958229384277343,39.56884765625,8.859024384277344L39.56884765625,8.833305384277343C39.56884765625,8.737770084277344,39.64294435625,8.660606384277344,39.74670365625,8.660606384277344Z" fill="#C8C8EE" fill-opacity="1"/></g></g></g><g style="mix-blend-mode:passthrough"><g><path d="M31.2874755859375,23.773493559570312L32.6992155859375,23.54200355957031Q32.8325755859375,23.031253559570313,33.2364455859375,22.70791355957031C33.6366555859375,22.384563559570314,34.0590855859375,21.70111855957031,34.0812955859375,21.554138559570312Q34.1850555859375,21.30060555957031,34.1776155859375,21.201393559570313C34.1702255859375,21.105857559570314,34.1072355859375,20.91479495957031,34.1887255859375,20.863349959570314C34.2702655859375,20.811904859570312,34.5444355859375,20.848648069570313,34.5814855859375,21.34469555957031C34.6185255859375,21.840743559570313,34.4407355859375,22.031813559570313,34.4518455859375,22.23391355957031C34.4629555859375,22.435993559570313,34.6037555859375,22.52050355957031,34.7186255859375,22.527853559570314C34.8334955859375,22.535213559570312,35.3670055859375,22.395573559570312,35.5078155859375,22.351483559570312C35.6486255859375,22.30739355957031,36.2118555859375,22.02079355957031,36.5194055859375,21.888503559570314C36.8269055859375,21.756233559570312,37.3901355859375,21.535766559570312,37.5716555859375,21.653350559570313C37.7495155859375,21.76725755957031,37.6050455859375,21.94730355957031,37.4790655859375,22.013433559570313C37.3530855859375,22.079573559570314,36.8306255859375,22.32943355957031,36.697205585937496,22.42131355957031C36.5638455859375,22.509493559570313,35.9710055859375,22.752003559570312,35.9227855859375,22.796093559570313C35.8746355859375,22.840183559570313,35.7857055859375,22.90632355957031,35.867245585937496,22.994503559570312C35.9487255859375,23.082693559570313,36.5194055859375,22.78506355957031,36.8380155859375,22.737303559570314C37.1566755859375,22.68953355957031,37.4567855859375,22.586643559570312,37.7384055859375,22.509493559570313C38.0200155859375,22.428653559570314,38.2312055859375,22.513163559570312,38.2571455859375,22.667483559570314C38.2830855859375,22.821813559570312,38.1163355859375,22.932043559570314,37.8013955859375,23.027583559570314C37.4864455859375,23.123113559570314,36.9158355859375,23.32521355957031,36.7639155859375,23.37664355957031C36.6157255859375,23.428103559570314,36.1414155859375,23.52362355957031,36.0747655859375,23.61548355957031C36.0080555859375,23.70734355957031,36.0191655859375,23.82860355957031,36.2081255859375,23.846973559570312C36.3970955859375,23.865353559570313,36.7787455859375,23.799213559570312,37.0381455859375,23.821253559570312C37.2974855859375,23.846973559570312,37.8829355859375,23.835963559570313,37.8977655859375,23.83227355957031C37.9125955859375,23.82860355957031,38.1830455859375,23.80655355957031,38.216435585937504,24.01967355957031C38.2497555859375,24.23278355957031,37.9718655859375,24.291583559570313,37.6458155859375,24.317303559570313C37.3197055859375,24.343023559570312,36.8417355859375,24.412833559570313,36.7083755859375,24.401813559570314C36.5786755859375,24.390783559570313,36.0377155859375,24.44957355957031,35.9858355859375,24.475303559570314C35.9339555859375,24.501033559570313,35.819095585937504,24.688413559570314,36.1192055859375,24.787623559570314C36.4193155859375,24.886843559570313,37.1641255859375,25.151393559570312,37.1900055859375,25.261623559570314C37.2159455859375,25.375533559570314,37.1826155859375,25.456363559570313,37.0122055859375,25.49678355957031C36.8417355859375,25.53720355957031,36.0191655859375,25.25795355957031,35.9154055859375,25.217533559570313C35.8116455859375,25.180783559570312,35.3892855859375,25.052183559570313,35.207705585937504,25.044833559570314C35.0261255859375,25.03749355957031,34.5333255859375,25.23590355957031,34.1998855859375,25.287343559570314C33.6625955859375,25.37185355957031,33.5366255859375,25.096273559570314,33.3661455859375,25.155063559570312Q33.3106055859375,25.173443559570313,31.6061405859375,25.51883355957031L31.2874755859375,23.773493559570312Z" fill="#FCB3B3" fill-opacity="1"/></g></g><g style="mix-blend-mode:passthrough"><g><path d="M36.40081804296875,22.568275451660156Q35.87835704296875,22.594001751660155,35.75238034296875,22.869583451660155Q35.62640384296875,23.145164451660158,36.09698504296875,22.968788451660156Q35.88208004296875,23.045951451660155,35.84869404296875,22.979812451660155Q35.76721194296875,22.799766451660155,36.40081804296875,22.568275451660156Z" fill="#FC8E8E" fill-opacity="1"/></g></g><g style="mix-blend-mode:passthrough"><g><path d="M36.24145467578125,24.427536023828125Q36.00805667578125,24.368743923828124,35.87463377578125,24.493675223828124Q35.74127197578125,24.618606923828125,36.07104467578125,24.765578923828127Q35.85986327578125,24.673720923828125,35.95245367578125,24.556136923828124Q36.04882767578125,24.442230223828126,36.24145467578125,24.427536023828125Z" fill="#FC8E8E" fill-opacity="1"/></g></g><g style="mix-blend-mode:passthrough"><g><path d="M34.34808349609375,20.870697021484375Q34.62225349609375,21.212418021484375,34.51849349609375,21.546791021484374C34.41479489609375,21.881167021484377,34.14801049609375,22.303717021484374,34.64447049609375,22.516837021484374Q34.42590329609375,22.483767021484375,34.48889149609375,22.127347021484375C34.55187949609375,21.770927021484376,34.63336149609375,21.682747021484374,34.61486849609375,21.355720021484373Q34.59265149609375,20.936836221484374,34.34808349609375,20.870697021484375Z" fill="#FC8E8E" fill-opacity="1"/></g></g><g style="mix-blend-mode:passthrough"><g><path d="M35.20397994140625,25.03749087246094Q34.90758994140625,24.95664977246094,34.64452994140625,25.044838272460936C34.38140994140625,25.13302627246094,34.16649994140625,25.16241427246094,33.94048994140625,25.026466372460938C33.71075394140625,24.890510572460936,33.29577594140625,24.88683317246094,32.86968994140625,25.25428027246094L33.36248794140625,25.147720272460937Q33.45141594140625,25.136696272460938,33.55511494140625,25.18446327246094C33.65887494140625,25.232231272460936,33.89605994140625,25.33144427246094,34.13317994140625,25.291023272460937Q34.36657994140625,25.246933272460936,35.20397994140625,25.03749087246094Z" fill="#FC8E8E" fill-opacity="1"/></g></g><g style="mix-blend-mode:passthrough"><g><path d="M29.52008101953125,24.03069339892578L31.39868501953125,23.534652698925782C31.98406501953125,23.38032539892578,32.58807501953125,23.725715398925782,32.743655019531246,24.30627439892578L32.77331501953125,24.41651139892578C32.92895501953125,24.99706139892578,32.58062501953125,25.592321398925783,31.99151501953125,25.74664139892578L30.11291501953125,26.24270139892578C29.52746601953125,26.39702139892578,28.92724601953125,26.05163139892578,28.77160641953125,25.47107139892578L28.74194331953125,25.360831398925782C28.58636501953125,24.783961398925783,28.93463101953125,24.185020398925783,29.52008101953125,24.03069339892578Z" fill="#F0F2FC" fill-opacity="1"/></g></g><g style="mix-blend-mode:passthrough"><g><path d="M31.40239580078125,26.26474898925781C31.72839580078125,25.86422898925781,31.87289580078125,25.324088989257813,31.75069580078125,24.780278989257813C31.53569580078125,23.83962898925781,30.59089580078125,23.24804898925781,29.64229580078125,23.46115898925781L23.376705800781252,24.86478898925781L17.02581580078125,20.63553598925781C16.21807580078125,20.095397989257812,15.12127680078125,20.312187189257813,14.57659880078125,21.113212989257814C14.03192180078125,21.91422898925781,14.24682620078125,23.001858989257812,15.05828880078125,23.541998989257813L22.039065800781252,28.193818989257814C22.44293580078125,28.462048989257813,22.93945580078125,28.553908989257813,23.41003580078125,28.44734898925781L30.41669580078125,26.874698989257812C30.82429580078125,26.78283898925781,31.16149580078125,26.562368989257813,31.40239580078125,26.26474898925781Z" fill="url(#master_svg3_9_8267)" fill-opacity="1"/></g></g><g style="mix-blend-mode:passthrough"><g><path d="M15.55480984765625,71.29473876953125L17.32592884765625,71.32046506953125C17.44079884765625,72.56241876953125,16.36626884765625,75.21166876953124,18.03368884765625,75.99799876953125C20.07531884765625,76.96068876953125,20.91637884765625,77.30976876953125,21.31286884765625,78.44515876953125C21.35729884765625,78.57744876953124,21.26464884765625,78.71706876953125,21.12389884765625,78.71339876953125L15.21392784765625,78.62153876953126C15.09167484765625,78.61785876953125,14.99902344765625,78.50762876953125,15.02496337765625,78.39004876953125C15.14721684765625,77.82418876953125,15.810485847656249,72.34194876953126,15.55480984765625,71.29473876953125Z" fill="#212785" fill-opacity="1"/></g></g><g style="mix-blend-mode:passthrough"><g><path d="M6.0173946171875,71.0191650390625L7.7885176171875,71.0632476390625C7.8922776171875,72.3088850390625,6.7918076171875,74.9471150390625,8.4517776171875,75.7444650390625C10.4859576171875,76.7255250390625,11.3196976171875,77.0819550390625,11.705017617187501,78.2210250390625C11.7495076171875,78.3533050390625,11.6531376171875,78.4892450390625,11.5123276171875,78.4892450390625L5.6024166171875,78.3422650390625C5.4801025171875,78.3385950390625,5.3875122171875,78.2283650390625,5.4134521471875,78.1071050390625C5.5505366171875,77.5449250390625,6.2656246171875,72.0663650390625,6.0173946171875,71.0191650390625Z" fill="#212785" fill-opacity="1"/></g></g><g style="mix-blend-mode:passthrough"><g><path d="M17.72607041015625,73.19446574707031C17.65947041015625,73.34506574707032,16.46257041015625,73.35246574707031,15.73637041015625,73.34136574707031Q15.41400041015625,73.3377657470703,15.18060041015625,73.33036574707032L13.96155041015625,63.611565747070316C13.89856041015625,62.906065747070315,13.79852041015625,62.200565747070314,13.679930410156249,61.50246574707032Q13.13898041015625,58.265265747070316,13.075990410156251,45.25047574707031L11.738340410156251,45.202695747070315Q10.178470410156251,55.79236574707031,9.90057041015625,58.73556574707031C9.856080410156249,59.20586574707031,9.77460041015625,59.66886574707031,9.67084041015625,60.13186574707031C9.55963041015625,60.63156574707031,9.526310410156249,61.00636574707031,9.55963041015625,61.78166574707031Q9.60785041015625,62.89866574707031,8.23688041015625,73.34506574707032L5.72467041015625,73.10986574707032Q6.03222641015625,60.49196574707031,6.28417941015625,57.85006574707032C6.49908441015625,55.58296574707031,6.43981941015625,43.45368574707031,6.41754141015625,40.09526074707031C6.41754141015625,40.04381574707031,6.41754141015625,39.996047747070314,6.41754141015625,39.948280747070314Q6.41387941015625,39.49265274707031,6.41387941015625,39.23176574707031L6.56945841015625,39.24279024707031L17.61127041015625,39.830695747070315Q17.61127041015625,39.962981747070316,17.61127041015625,40.201820747070315C17.61127041015625,40.29367574707031,17.61127041015625,40.40757574707031,17.61497041015625,40.52883574707031L17.61497041015625,40.54354574707031C17.61497041015625,40.572925747070315,17.61497041015625,40.598645747070314,17.61497041015625,40.62805574707031C17.61867041015625,40.89260574707031,17.61867041015625,41.212275747070315,17.61867041015625,41.58339574707031C17.63347041015625,45.05204574707031,17.67797041015625,52.647065747070315,17.748370410156248,54.85536574707031C17.85207041015625,57.750865747070314,17.818770410156247,72.9849657470703,17.72607041015625,73.19446574707031Z" fill="#4F5CD3" fill-opacity="1"/></g></g><g style="mix-blend-mode:passthrough"><g><path d="M16.8554074375,73.19077254638671L16.7701414375,73.15397254638671C16.8516844375,72.85637254638672,16.8998414375,57.989672546386714,16.7886964375,54.83697254638672C16.7108764375,52.36417254638672,16.6664428375,43.34711254638672,16.6589965775,41.56502554638672C16.6589965775,41.22329754638672,16.6552734375,40.91832754638672,16.6552734375,40.664787246386716L16.6552734375,40.60967254638672L16.7516479375,40.60967254638672L16.7516479375,40.664787246386716C16.7516479375,40.91832754638672,16.7553104375,41.21962754638672,16.7553104375,41.56502554638672C16.7627564375,43.34711254638672,16.8071904375,52.36417254638672,16.8850094375,54.83697254638672C16.9850464375,57.68467254638672,16.9628294375,72.95557254638672,16.8554074375,73.19077254638671Z" fill="#E4E8FD" fill-opacity="1"/></g></g><g style="mix-blend-mode:passthrough"><g><path d="M6.673217796875,73.13567731933594L6.576904296875,73.13197731933593C6.580627436875,73.00707731933593,6.888122296875,60.480977319335935,7.136413296875,57.868377319335934C7.358703296875,55.531477319335934,7.284607296875,42.54977731933594,7.269775296875,39.97032931933594Q7.266052296875,39.51470231933594,7.262390296875,39.253814719335935L7.262390296875,39.20237731933594L7.469848296875,39.21339411933594L7.466186296875,39.30892931933594L7.358703296875,39.301582319335935C7.358703296875,39.39711731933594,7.362426296875,39.62860831933594,7.362426296875,39.966652319335935C7.380920296875,42.546097319335935,7.451355296875,55.531477319335934,7.229004296875,57.87577731933594C6.984497296875,60.488277319335936,6.676941296875,73.00707731933593,6.673217796875,73.13567731933594Z" fill="#E4E8FD" fill-opacity="1"/></g></g><g style="mix-blend-mode:passthrough"><g><path d="M9.67083775390625,60.13182038574219C9.77459775390625,59.66892038574219,9.85607775390625,59.20592038574219,9.90057775390625,58.731920385742185C10.16363775390625,55.92102038574219,11.60870775390625,46.066192385742184,11.73833775390625,45.19902038574219L10.47857775390625,45.19902038574219C10.13396775390625,45.85675038574219,9.85607775390625,46.657760385742186,9.77087775390625,47.40735038574219C9.53741775390625,49.490740385742185,9.45220775390625,51.585160385742185,9.36327775390625,53.679580385742184C9.05199775390625,61.34442038574218,8.17761275390625,65.63982038574218,7.85894775390625,73.30832038574219L8.23687775390625,73.34502038574219Q9.607847753906249,62.89872038574219,9.55962775390625,61.78172038574219C9.53002775390625,61.006320385742185,9.55962775390625,60.63522038574219,9.67083775390625,60.13182038574219Z" fill="#3F47C7" fill-opacity="1"/></g></g><g style="mix-blend-mode:passthrough"><g><path d="M14.269105625,59.02585776367187C13.761474625,54.521027763671874,13.124145525,49.68180776367188,14.024536625,45.27618406367188L13.072265625,45.250457763671875C13.079711915,46.68716776367187,13.168640125,58.463657763671876,13.676269625,61.50245776367187C13.791076625,62.204257763671876,13.894836625,62.906057763671875,13.957824625,63.611557763671875L15.176875625000001,73.33035776367187Q15.410335625,73.33775776367187,15.732665625,73.34135776367188C15.473325625000001,67.47335776367187,14.928645625,64.86085776367187,14.269105625,59.02585776367187Z" fill="#3F47C7" fill-opacity="1"/></g></g><g style="mix-blend-mode:passthrough"><g><path d="M17.611279394531252,40.973445747070315C16.78497939453125,41.18289574707031,15.36956939453125,41.68627574707031,12.838869394531251,41.45111574707031C10.889889394531249,41.26740574707031,7.64770939453125,41.116755747070314,6.41754150453125,40.09526074707031C6.41754150453125,40.04381574707031,6.41754150453125,39.996047747070314,6.41754150453125,39.948280747070314Q6.41387939453125,39.49265274707031,6.41387939453125,39.23176574707031L6.56945839453125,39.24279024707031C7.79223939453125,40.304705747070315,11.00103939453125,40.22753874707031,12.95000939453125,40.41126574707031C15.44738939453125,40.642745747070315,16.78127939453125,40.53985574707031,17.611279394531252,40.20548974707031Q17.61497939453125,40.20548974707031,17.61867939453125,40.20548974707031C17.61867939453125,40.330425747070315,17.61497939453125,40.42962574707031,17.61497939453125,40.53618574707031L17.61497939453125,40.55088574707031C17.611279394531252,40.66111574707031,17.611279394531252,40.78971574707031,17.611279394531252,40.973445747070315Z" fill="#212785" fill-opacity="1"/></g></g><g style="mix-blend-mode:passthrough" transform="matrix(0.9957149624824524,0.092926025390625,-0.09448038041591644,0.995482861995697,3.7944138768748417,-0.7854120196225267)"><g><rect x="10.38134765625" y="39.690032958984375" width="0.33712038397789" height="2.0431272983551025" rx="0" fill="#4F5CD3" fill-opacity="1"/></g></g><g style="mix-blend-mode:passthrough" transform="matrix(0.9957149624824524,0.092926025390625,-0.09448038041591644,0.995482861995697,3.8640105985892887,-1.2147305594794489)"><g><rect x="15.02691650390625" y="40.215965270996094" width="0.33712038397789" height="2.0431272983551025" rx="0" fill="#4F5CD3" fill-opacity="1"/></g></g><g style="mix-blend-mode:passthrough"><g><path d="M12.09405513671875,41.888370739746094L13.28350513671875,41.994930739746096C13.47613513671875,42.01330073974609,13.64288513671875,41.87368073974609,13.661435136718751,41.682610739746096L13.71697513671875,41.068977739746096C13.73181513671875,40.877906739746095,13.59100513671875,40.71256273974609,13.40203513671875,40.694183739746094L12.21264613671875,40.587631229746094C12.01995813671875,40.572929339746096,11.85321043671875,40.71256273974609,11.83471683671875,40.89995573974609L11.77911376671875,41.5135807397461C11.76428223671875,41.704660739746096,11.90509013671875,41.86999073974609,12.09405513671875,41.888370739746094ZM11.96075413671875,40.91101873974609C11.97186313671875,40.7897647397461,12.08306913671875,40.697898739746094,12.20532213671875,40.70892373974609L13.39471513671875,40.815482739746095C13.516965136718749,40.82650773974609,13.60961513671875,40.936736739746095,13.59851513671875,41.057990739746096L13.54290513671875,41.671620739746096C13.531795136718749,41.792880739746096,13.42065513671875,41.8847307397461,13.298405136718749,41.87372073974609L12.10894813671875,41.767160739746096C11.98669413671875,41.75613073974609,11.89404313671875,41.6459007397461,11.90521213671875,41.52464273974609L11.96075413671875,40.91101873974609Z" fill-rule="evenodd" fill="#E4E8FD" fill-opacity="1"/></g></g><g style="mix-blend-mode:passthrough" transform="matrix(0.9957150220870972,0.092926025390625,-0.09448038041591644,0.9954829216003418,4.010826209204083,-0.9803206325632345)"><g><rect x="12.58526611328125" y="41.880638122558594" width="0.11854783445596695" height="2.458367109298706" rx="0" fill="#E4E8FD" fill-opacity="1"/></g></g><g style="mix-blend-mode:passthrough"><g><path d="M17.622358691406248,39.977683142089845C17.53345869140625,41.45108314208984,6.34716769140625,40.639083142089845,6.4398196914062495,39.165583142089844C7.00298869140625,29.685583142089843,4.54266369140625,22.954093142089842,6.01367169140625,21.429213142089843C6.17669669140625,21.260183142089843,6.71770869140625,20.220323142089843,9.11132869140625,19.367859142089845C9.207638691406249,19.334793142089843,9.30401869140625,19.301720142089845,9.404048691406249,19.268654142089844C9.43737869140625,19.257629142089844,9.47069869140625,19.246605142089845,9.507748691406249,19.235580142089844C9.58190869140625,19.217209142089843,9.64855869140625,19.202515142089844,9.72271869140625,19.187813142089844C9.730098691406251,19.187813142089844,9.73748869140625,19.184135142089843,9.74493869140625,19.184135142089843C10.174738691406251,19.103302142089845,10.61193869140625,19.048187242089845,11.04919869140625,19.018791242089844C11.41228869140625,18.993072512089842,11.77911869140625,18.985717772089842,12.14593869140625,18.996742252089845C12.19408869140625,18.996742252089845,12.24230869140625,19.000419612089843,12.29418869140625,19.004089342089845C12.39049869140625,19.007766742089842,12.48681869140625,19.011444042089845,12.58318869140625,19.018791242089844C12.66100869140625,19.026138342089844,12.73876869140625,19.026138342089844,12.82030869140625,19.040840142089845C13.16491869140625,19.062881442089843,13.51690869140625,19.110649142089844,13.87633869140625,19.176788142089844C13.99120869140625,19.198837142089843,14.10973869140625,19.220886142089842,14.22460869140625,19.246605142089845C14.32464869140625,19.268654142089844,14.42467869140625,19.290695142089845,14.52105869140625,19.316421142089844C15.54365869140625,19.573624142089844,16.510758691406252,20.021903142089844,17.155458691406253,20.778833142089844C17.85575869140625,24.688413142089843,17.474158691406252,33.07348314208984,17.622358691406248,39.977683142089845Z" fill="url(#master_svg4_9_8282)" fill-opacity="1"/></g></g><g style="mix-blend-mode:passthrough"><g><path d="M7.2734980625,38.85698614501953C7.1364135625,37.53418614501953,7.2216190625,36.67438614501953,7.1623535625,35.35158614501953C7.1253051625,34.69018614501953,7.1104736625,34.02878614501953,7.0882568625,33.36739614501953C7.0659790025,32.71334614501953,7.0548705625,32.02255614501953,7.1253051625,31.350136145019533C7.1919560625,30.67771614501953,7.3402100625,30.001626145019532,7.4995120625,29.36595614501953C7.6625370625,28.72292614501953,7.8144530625,28.07990614501953,7.9849240625,27.44055614501953C8.3183590625,26.15818614501953,8.6740690625,24.87948614501953,9.0853890625,23.61548614501953C8.9075290625,24.934606145019533,8.6740690625,26.23902614501953,8.4221190625,27.53976614501953C8.299869062500001,28.19013614501953,8.159059062499999,28.836836145019532,8.0293580625,29.48720614501953C7.8848880625,30.141256145019533,7.7551880625,30.762226145019532,7.6959230625,31.40892614501953C7.6181030625,32.05562614501953,7.6254880625,32.691296145019535,7.6292110625,33.36004614501953C7.6217650625,34.02148614501953,7.6254880625,34.682786145019534,7.6106570625,35.34788614501953C7.5847170625,36.666986145019536,7.3735350625,37.53048614501953,7.2734980625,38.85698614501953Z" fill="#FF4F7C" fill-opacity="1"/></g></g><g style="mix-blend-mode:passthrough"><g><path d="M4.96136474609375,44.58539317871094Q5.23925774609375,45.24679317871094,5.4023437460937505,45.42315317871094C5.56536874609375,45.599533178710935,5.93957474609375,45.86409317871094,6.01001474609375,45.915523178710934C6.08038474609375,45.96698317871094,6.39904474609375,46.01841317871094,6.52874474609375,46.07353317871094C6.65838474609375,46.12864317871094,6.88812474609375,46.27195317871094,6.95855474609375,46.136003178710936Q7.05859474609375,45.79428317871094,6.69549474609375,45.673023178710935Q6.44720474609375,45.53708317871094,6.28790474609375,45.52972317871094Q6.14337474609375,45.31292317871094,5.94702174609375,45.14758317871094C5.9173587460937505,45.12553317871094,5.89880374609375,45.09247317871094,5.88403274609375,45.05938317871094C5.83581574609375,44.93814317871094,5.89880374609375,44.15181317871094,5.8543697460937505,44.037903178710934L5.93957474609375,45.05204317871094C5.95812974609375,45.08879317871094,5.98407474609375,45.12553317871094,6.01739474609375,45.151263178710934C6.10632474609375,45.22841317871094,6.29901474609375,45.390093178710934,6.39532474609375,45.43051317871094C6.5250247460937505,45.48562317871094,6.62878474609375,45.533383178710935,6.75103474609375,45.54074317871094C6.87329474609375,45.55175317871094,7.29943474609375,45.63627317871094,7.39947474609375,45.60688317871094C7.503234746093749,45.577483178710935,7.54766474609375,45.37539317871094,7.42541474609375,45.27986317871094C7.30316474609375,45.188003178710936,7.14379474609375,45.09614317871094,6.82147474609375,45.13289317871094Q6.69549474609375,44.956513178710935,6.49908474609375,44.879353178710936Q6.3027347460937495,44.80218317871094,6.69549474609375,44.805863178710936L6.85107474609375,44.96019317871094Q7.140074746093751,45.19902317871094,7.26977474609375,45.114513178710936C7.39947474609375,45.030003178710935,7.32904474609375,44.79850317871094,7.11047474609375,44.64785317871094Q6.89184474609375,44.49720317871094,6.55096474609375,43.99381317871094L6.17303474609375,43.60800217871094L5.59497074609375,42.92088317871094Q5.19854774609375,43.06050917871094,5.19482374609375,43.07521017871094Q5.19110074609375,43.089905178710936,4.96136474609375,44.58539317871094Z" fill="#FC8E8E" fill-opacity="1"/></g></g><g style="mix-blend-mode:passthrough"><g><path d="M6.702881640625,42.90618079101562C6.762141640625,42.49832079101562,6.780701640625,41.68260179101563,6.576901640625,41.149810791015625L5.009582640625,41.19390869101562C4.976196640625,41.65320579101562,4.920654640625,42.160290791015626,4.783508640625,42.531390791015625C4.698303640625,42.766550791015625,4.653869640625,43.012740791015624,4.650146640625,43.26260079101562C4.646423640625,43.40224079101562,4.642761640625,43.56023079101563,4.639037640625,43.72925079101562C4.631591640625,44.15549079101562,4.535278340625,44.625810791015624,4.524169921625,44.77280079101563C4.513061540625,44.923450791015625,4.698303640625,45.73549079101562,4.713134640625,45.897170791015625C4.727966640625,46.058840791015626,4.865051640625,46.463030791015626,4.946594640625,46.51079079101562C5.028076640625,46.55489079101562,5.254089640625,46.496090791015625,5.276367640625,46.165390791015625Q5.294860640625,45.83470079101563,5.202209640625,45.621580791015624Q5.250427640625,45.07042079101562,5.205932640625,44.79851079101562Q5.298583640625,44.18855079101562,5.357848640625,44.05629079101563C5.417114640625,43.92033079101562,5.402343640625,43.328740791015626,5.624631640625,43.192790791015625C5.843261640625,43.05316079101563,5.995181640625,43.427950791015625,6.076661640625,43.64107079101562C6.158201640625,43.854190791015625,6.265621640625,44.07832079101563,6.365721640625,44.22531079101562C6.465761640625,44.372280791015626,6.565791640625,44.54497079101562,6.684321640625,44.55968079101562C6.802921640625,44.574370791015625,7.1253016406250005,44.43841079101563,7.058591640625,44.15181079101563C6.988161640625,43.861530791015625,6.639891640625001,43.343440791015624,6.702881640625,42.90618079101562Z" fill="#FCB3B3" fill-opacity="1"/></g></g><g style="mix-blend-mode:passthrough"><g><path d="M6.7436548046875,38.97823667236328L6.8992348046875005,40.89995667236328C6.9474448046875,41.498886672363284,6.4953648046875,42.02432667236328,5.8914148046875,42.07209667236328L5.7765548046875,42.07944667236328C5.1726078046875,42.12720667236328,4.6427608046875,41.67892667236328,4.5945438046875005,41.07999667236328L4.4389648446875,39.15827667236328C4.3907471046875,38.55934867236328,4.8391118046875,38.03390507236328,5.4430548046875,37.98613737236328L5.5579248046875005,37.97879028236328C6.1655848046875,37.93469997236328,6.6954948046875,38.37930267236328,6.7436548046875,38.97823667236328Z" fill="#F0F2FC" fill-opacity="1"/></g></g><g style="mix-blend-mode:passthrough"><g><path d="M6.19152396484375,40.55452967529297C6.86218396484375,40.301029675292966,7.33276396484375,39.65432967529297,7.325373964843751,38.90472967529297L7.25866396484375,32.33852967529297C7.24755396484375,31.39792967529297,7.35131396484375,30.45724967529297,7.566223964843751,29.53864967529297L9.03350396484375,23.207619675292968C9.25213396484375,22.26696967529297,8.659303964843751,21.32632467529297,7.71069396484375,21.11320497529297C6.76214396484375,20.896415675292968,5.81359396484375,21.484321675292968,5.59869396484375,22.424969675292967L4.13140896484375,28.75599967529297C3.85723896484375,29.93915967529297,3.72381596484375,31.15902967529297,3.73492431684375,32.371629675292965L3.80163576484375,38.93782967529297C3.81274416484375,39.90422967529297,4.60937496484375,40.67952967529297,5.58386396484375,40.66842967529297C5.79510396484375,40.664829675292964,6.00256396484375,40.62432967529297,6.19152396484375,40.55452967529297Z" fill="url(#master_svg5_9_8285)" fill-opacity="1"/></g></g><g style="mix-blend-mode:passthrough"><g><path d="M14.52478126953125,19.31274461669922C14.43585126953125,19.72428161669922,14.169071269531251,20.099069616699218,13.75775126953125,20.40036961669922C13.257571269531251,20.767819616699217,12.58691126953125,20.980929616699218,11.87549126953125,20.99929961669922C11.80878126953125,21.002979616699218,11.73840126953125,21.002979616699218,11.67169126953125,20.99929961669922C10.35632126953125,20.96622961669922,9.31140126953125,20.28278961669922,9.11505126953125,19.36418161669922C9.21136476953125,19.33111561669922,9.30767826953125,19.29804261669922,9.40771526953125,19.26497661669922C9.44110126953125,19.25395161669922,9.47442626953125,19.24292761669922,9.51147426953125,19.23190261669922C9.58557126953125,19.213531616699218,9.65228226953125,19.19883761669922,9.72637926953125,19.18413561669922C9.73382526953125,19.18413561669922,9.74121126953125,19.18046561669922,9.74865726953125,19.18046561669922C10.17847126953125,19.09962461669922,10.61566126953125,19.04450991669922,11.05292126953125,19.01511381669922C11.46417126953125,19.00776672669922,11.88287126953125,19.00041961669922,12.29785126953125,19.00041961669922C12.39422126953125,19.004089356699218,12.49054126953125,19.00776672669922,12.58691126953125,19.01511381669922C12.66467126953125,19.02246091669922,12.74249126953125,19.02246091669922,12.82403126953125,19.03716281669922C13.16864126953125,19.05921171669922,13.52063126953125,19.10697961669922,13.880001269531249,19.17311861669922C13.994871269531249,19.195159616699218,14.11346126953125,19.217208616699217,14.22833126953125,19.24292761669922C14.32464126953125,19.26497661669922,14.42474126953125,19.290695616699217,14.52478126953125,19.31274461669922Z" fill="#FFFFFF" fill-opacity="1"/></g></g><g style="mix-blend-mode:passthrough"><g><path d="M14.224612734375,19.246617026367186C14.043092734375,20.04395702636719,13.064882734375,20.668607026367187,11.864382734374999,20.70168702636719C10.611942734374999,20.734747026367188,9.559631734375,20.110097026367185,9.404052734375,19.268647026367187C9.437377934375,19.25762702636719,9.470703134375,19.246617026367186,9.507812734375,19.23557702636719C9.581908734375,19.217207026367188,9.648559734375,19.202507026367186,9.722717734375,19.18781702636719C9.730102734375,19.18781702636719,9.737487734375,19.18414702636719,9.744933734375,19.18414702636719C9.930175734375,19.147397026367187,10.119140734375,19.11799702636719,10.311828734375,19.095947026367188L10.430422734375,14.543347026367188C10.448912734375,13.804794026367187,11.071412734375,13.216880826367188,11.816162734375,13.238929748367187C12.190432734375,13.249954226367187,12.520202734375001,13.407951026367188,12.761042734375,13.657814026367188C12.998172734375,13.907677026367187,13.138972734374999,14.245717026367188,13.131592734375,14.613157026367187L13.016722734375,19.059207026367186C13.298282734375,19.084927026367186,13.587342734375,19.125347026367187,13.880062734374999,19.176787026367187C13.991212734375,19.198837026367187,14.109742734375,19.220877026367187,14.224612734375,19.246617026367186Z" fill="url(#master_svg6_9_8288)" fill-opacity="1"/></g></g><g style="mix-blend-mode:passthrough"><g><path d="M14.109744765624999,11.861025517578124L14.439514765624999,15.149625517578125C14.576594765625,16.501815517578123,13.576174765625,17.710695517578124,12.212644765625,17.846655517578125C10.849124765625,17.982605517578126,9.630065765625,16.990515517578125,9.492980765625,15.638325517578124L9.163207965625,12.349725517578126C9.026122765625,10.997535517578125,10.026550765625,9.788650517578125,11.390074765625,9.652694717578125C12.071834765624999,9.586555517578125,12.716554765625,9.795997517578124,13.213074765624999,10.203857517578125C13.705874765625001,10.600700517578126,14.039364765624999,11.184925517578126,14.109744765624999,11.861025517578124Z" fill="url(#master_svg7_9_8291)" fill-opacity="1"/></g></g><g style="mix-blend-mode:passthrough"><g><path d="M9.59667763671875,14.561723930664062C9.35217263671875,14.602143930664063,9.13354463671875,14.403723930664063,8.98901363671875,14.205303930664062C8.73706063671875,13.856233930664063,8.56665043671875,13.452041930664063,8.48883053671875,13.029487930664063C8.45916743671875,12.853110930664062,8.45916743671875,12.636321930664062,8.60742163671875,12.529762230664062C8.69262663671875,12.463623050664063,8.81488063671875,12.459953330664062,8.91863963671875,12.496696430664063C9.02239963671875,12.533439630664063,9.10760463671875,12.606925930664062,9.18170163671875,12.684089930664063C9.39294463671875,12.908233930664062,9.52258763671875,13.213210930664063,9.53741763671875,13.521863930664063L9.59667763671875,14.561723930664062Z" fill="url(#master_svg8_9_8294)" fill-opacity="1"/></g></g><g style="mix-blend-mode:passthrough"><g style="mix-blend-mode:passthrough"><g><path d="M15.202821757812501,11.894088220214844C14.1245717578125,12.599578220214845,10.0561517578125,11.978608220214845,9.9857817578125,11.949208220214844C9.9783317578125,11.949208220214844,9.9709517578125,11.967578220214843,9.9672217578125,12.000648220214844C9.9265117578125,12.331348220214844,9.9746717578125,14.179578220214843,9.7968117578125,14.458838220214844C9.6004017578125,14.763808220214845,9.607851757812501,14.095068220214845,9.5485227578125,13.929718220214845Q9.4929807578125,13.764368220214845,9.2224727578125,12.706138220214843Q9.1705937578125,12.221118220214844,8.9519657578125,11.794878220214844C8.7296757578125,11.368648220214844,8.2998657578125,10.376558220214843,8.7926637578125,9.715158220214844Q9.2854617578125,9.053768220214844,9.9042317578125,9.413858220214843Q11.3270917578125,7.808136220214844,12.824031757812499,7.9661407202148435Q14.3246417578125,8.127815220214844,13.6873817578125,9.281578220214843Q14.443241757812501,9.083158220214845,14.987911757812501,9.200738220214843C15.2620817578125,9.255858220214844,15.476991757812499,9.395488220214844,15.5214817578125,9.674738220214843C15.5251417578125,9.678418220214844,16.281071757812498,11.184928220214843,15.202821757812501,11.894088220214844Z" fill="url(#master_svg9_9_8297)" fill-opacity="1"/></g></g><g style="mix-blend-mode:passthrough"><g><path d="M15.202815839843751,11.894087260742188C14.12457583984375,12.599577260742187,10.05615283984375,11.978607260742187,9.98577883984375,11.949207260742188C9.97833253984375,11.949207260742188,9.97094723984375,11.967587260742187,9.96722413984375,12.000647260742188C9.94128413984375,11.978607260742187,9.92279053984375,11.952877260742188,9.90423583984375,11.927157260742188C10.00061033984375,11.831627260742188,10.22662383984375,11.886737260742187,10.35259983984375,11.890417260742188C10.53417983984375,11.894087260742188,10.71942183984375,11.894087260742188,10.897277839843749,11.886737260742187C11.26037583984375,11.879397260742188,11.62353583984375,11.849997260742187,11.97918583984375,11.783857260742188C12.72399583984375,11.644227260742188,13.45391583984375,11.346607260742188,13.99487583984375,10.824837260742187C14.45806583984375,10.376557260742187,14.75817583984375,9.807022260742187,14.991635839843749,9.197067260742188C15.26580583984375,9.252189660742188,15.48071583984375,9.391815260742188,15.52520583984375,9.671066260742187C15.52520583984375,9.678421260742187,16.281065839843748,11.184927260742187,15.202815839843751,11.894087260742188Z" fill="url(#master_svga_9_8300)" fill-opacity="1"/></g></g></g><g style="mix-blend-mode:passthrough"><g><path d="M13.61694353125,13.169112907226562C13.34277353125,13.260978907226562,12.98706053125,13.235251907226562,12.73138423125,13.106650907226562C12.67578123125,13.077254907226562,12.67950443125,13.029487607226562,12.73883053125,13.007438707226562C12.87591553125,12.959671017226562,13.03149453125,12.944976807226562,13.18713353125,12.956001277226562C13.34277353125,12.967025707226563,13.49468953125,13.007438707226562,13.62066653125,13.069907907226563C13.67993153125,13.099303907226563,13.67626953125,13.147071907226563,13.61694353125,13.169112907226562Z" fill="#121C7C" fill-opacity="1"/></g></g><g style="mix-blend-mode:passthrough"><g><path d="M11.27148438671875,13.10297357861328C11.023254386718751,13.24995457861328,10.66754138671875,13.294044578613281,10.39337158671875,13.22055857861328C10.33404538671875,13.20585657861328,10.32666018671875,13.154418578613281,10.38226318671875,13.121345578613282C10.50451638671875,13.047859178613281,10.65643338671875,13.000091578613281,10.81207238671875,12.981719978613281C10.96398938671875,12.959670978613282,11.12329138671875,12.970695495613281,11.26037638671875,13.007438678613282C11.31970238671875,13.02214047861328,11.32708738671875,13.073577578613282,11.27148438671875,13.10297357861328Z" fill="#121C7C" fill-opacity="1"/></g></g><g style="mix-blend-mode:passthrough"><g><path d="M11.708740226562501,16.99786394873047C11.3641362265625,17.00153394873047,11.1270141265625,16.76269494873047,11.0417480265625,16.60469794873047C11.0158691265625,16.560607948730468,11.0343627965625,16.50181574873047,11.0788574265625,16.47976684873047C11.1232910265625,16.454048148730468,11.1825562265625,16.47241973873047,11.2048342265625,16.516510048730467C11.2159422265625,16.534881548730468,11.4493412265625,16.93907194873047,11.9161992265625,16.77371994873047C11.9644162265625,16.755347948730467,12.0199582265625,16.78107494873047,12.0347872265625,16.828834948730467C12.0533472265625,16.876601948730467,12.0274052265625,16.93172494873047,11.9791872265625,16.946418948730468C11.8828732265625,16.98316194873047,11.7939452265625,16.99786394873047,11.708740226562501,16.99786394873047Z" fill="#FFFFFF" fill-opacity="1"/></g></g><g style="mix-blend-mode:passthrough"><g><path d="M11.44195553125,14.392699852539062C11.44195553125,14.491904852539063,11.36413553125,14.569068852539063,11.26409953125,14.572745852539063C11.16406253125,14.572745852539063,11.08624267125,14.495582852539062,11.08251953125,14.396369852539063C11.08251953125,14.297164952539063,11.16033933125,14.220001222539063,11.26037553125,14.216323852539062C11.36041253125,14.216323852539062,11.44195553125,14.293487552539062,11.44195553125,14.392699852539062Z" fill="#121C7C" fill-opacity="1"/></g></g><g style="mix-blend-mode:passthrough"><g><path d="M13.2093505859375,14.374328270507812C13.2093505859375,14.473533270507813,13.1315915859375,14.550697270507813,13.0314945859375,14.554374270507813C12.9314574859375,14.558044270507812,12.8536376959375,14.477211270507812,12.8499755859375,14.377998270507813C12.8499755859375,14.278793370507813,12.9277953859375,14.201629640507813,13.0278315859375,14.197952270507812C13.1278685859375,14.197952270507812,13.2093505859375,14.275115970507812,13.2093505859375,14.374328270507812Z" fill="#121C7C" fill-opacity="1"/></g></g><g style="mix-blend-mode:passthrough"><g><path d="M12.32012939453125,14.495582759765625C12.32751464453125,14.980603759765625,12.73138439453125,15.370093759765625,13.22052039453125,15.366413759765624C13.71331939453125,15.359073759765625,14.10607939453125,14.958553759765625,14.09862939453125,14.477210759765626C14.09124939453125,13.992187759765624,13.68737939453125,13.602699279765625,13.19824239453125,13.606376647965625C12.70916739453125,13.610046389765625,12.31640625453125,14.010558759765624,12.32012939453125,14.495582759765625ZM12.47198439453125,14.491874759765626C12.46826139453125,14.091369759765625,12.79431139453125,13.756995759765624,13.20190439453125,13.753318759765625C13.60949939453125,13.745971759765625,13.94665939453125,14.072990759765625,13.94665939453125,14.477180759765625C13.95037939453125,14.877683759765626,13.62432939453125,15.212063759765625,13.21673539453125,15.215733759765625C12.81286639453125,15.219413759765626,12.47564739453125,14.896063759765624,12.47198439453125,14.491874759765626Z" fill-rule="evenodd" fill="#FFFFFF" fill-opacity="1"/></g></g><g style="mix-blend-mode:passthrough"><g><path d="M10.2933349609375,14.517624080566407C10.3007202109375,15.002655080566406,10.7045899609375,15.392145080566406,11.1936649609375,15.388455080566406C11.6865249609375,15.381115080566406,12.0792849609375,14.984285080566407,12.0681149609375,14.499252080566407C12.0644549609375,14.014229080566405,11.6605849609375,13.624740600566406,11.1714479609375,13.628417968766406C10.6823729609375,13.632087710566406,10.2896118209375,14.032600080566406,10.2933349609375,14.517624080566407ZM10.4451899609375,14.513954080566407C10.4414669609375,14.113441080566407,10.7675169609375,13.779068080566406,11.1751099609375,13.775398080566406C11.5827049609375,13.771721080566406,11.9198649609375,14.095070080566407,11.9198649609375,14.499252080566407C11.9235849609375,14.899775080566407,11.5975349609375,15.234135080566407,11.1899409609375,15.237805080566407C10.7860719609375,15.241495080566406,10.4488529609375,14.918145080566406,10.4451899609375,14.513954080566407Z" fill-rule="evenodd" fill="#FFFFFF" fill-opacity="1"/></g></g><g style="mix-blend-mode:passthrough"><g><path d="M12.0310672734375,14.554374303222657L11.9310302734375,14.444137303222655C12.0385132734375,14.348602303222656,12.1385502734375,14.304512023222657,12.2385862734375,14.311859131222656C12.3201292734375,14.319213863222656,12.3978882734375,14.366973903222656,12.4608762734375,14.447815303222656L12.3423462734375,14.536003303222657C12.3052982734375,14.488235303222655,12.2682492734375,14.462509303222657,12.2274782734375,14.458839303222657C12.1718752734375,14.455162303222655,12.1052242734375,14.488235303222655,12.0310672734375,14.554374303222657Z" fill="#FFFFFF" fill-opacity="1"/></g></g></g></svg>