<svg xmlns="http://www.w3.org/2000/svg" xmlns:xlink="http://www.w3.org/1999/xlink" fill="none" version="1.1" width="30.04052734375" height="31.525535583496094" viewBox="0 0 30.04052734375 31.525535583496094"><defs><linearGradient x1="1.040097951889038" y1="0.025375785306096077" x2="0.2551981508731842" y2="1.0013662576675415" id="master_svg0_42_4404"><stop offset="8.571428805589676%" stop-color="#D4D9E5" stop-opacity="1"/><stop offset="97.14285731315613%" stop-color="#DADFEC" stop-opacity="1"/></linearGradient><linearGradient x1="0.5" y1="0" x2="0.5" y2="1" id="master_svg1_42_4156"><stop offset="0.714285671710968%" stop-color="#B8BCC5" stop-opacity="1"/><stop offset="29.892414808273315%" stop-color="#CBCFDA" stop-opacity="1"/><stop offset="99.99998211860657%" stop-color="#C3C8D4" stop-opacity="1"/></linearGradient></defs><g><g><path d="M0.7661833698844909,22.807335736083985Q0.2956333698844906,26.235735736083985,0.2956333698844906,30.985535736083985L9.34671336988449,30.985535736083985Q9.34671336988449,22.675835736083982,11.042213369884491,19.130355736083985Q11.820483369884492,17.502885736083982,12.99732336988449,16.762315736083984Q14.38180336988449,15.891075736083984,16.768573369884493,15.891075736083984L20.37527336988449,15.891075736083984L22.97717336988449,15.891075736083984Q23.422873369884492,15.891075736083984,23.860073369884493,15.804115736083984Q24.29717336988449,15.717155736083985,24.70897336988449,15.546585736083983Q25.120773369884493,15.376015736083986,25.491373369884492,15.128385736083985Q25.861973369884492,14.880755736083984,26.177173369884493,14.565575736083984Q26.49237336988449,14.250395736083984,26.739973369884492,13.879795736083985Q26.98767336988449,13.509185736083985,27.15817336988449,13.097385736083984Q27.32877336988449,12.685585736083985,27.41577336988449,12.248424736083985Q27.50267336988449,11.811262736083984,27.50267336988449,11.365535736083984Q27.50267336988449,11.254439736083985,27.497273369884493,11.143478736083985Q27.49177336988449,11.032516736083984,27.480873369884492,10.921955736083984Q27.469973369884492,10.811395736083984,27.45367336988449,10.701501736083983Q27.43737336988449,10.591608736083984,27.41577336988449,10.482647736083985Q27.39407336988449,10.373686736083984,27.36707336988449,10.265925736083984Q27.34007336988449,10.158155736083984,27.30777336988449,10.051845736083985Q27.27557336988449,9.945535736083984,27.238173369884493,9.840925736083985Q27.20067336988449,9.736325736083984,27.15817336988449,9.633685736083985Q27.11567336988449,9.531045736083984,27.06817336988449,9.430625736083984Q27.02067336988449,9.330195736083985,26.96827336988449,9.232215736083985Q26.91597336988449,9.134235736083983,26.858873369884492,9.038945736083985Q26.80167336988449,8.943655736083985,26.739973369884492,8.851285736083984Q26.67827336988449,8.758915736083985,26.61207336988449,8.669675736083985Q26.54587336988449,8.580445736083984,26.47547336988449,8.494565736083985Q26.40497336988449,8.408685736083985,26.33037336988449,8.326375736083985Q26.25577336988449,8.244055736083984,26.177173369884493,8.165495736083985Q26.09867336988449,8.086945736083985,26.01627336988449,8.012335736083983Q25.93397336988449,7.937725736083984,25.848073369884492,7.8672457360839845Q25.76227336988449,7.796775736083984,25.67297336988449,7.730595736083984Q25.58377336988449,7.664415736083985,25.491373369884492,7.602695736083984Q25.39907336988449,7.540965736083985,25.303773369884492,7.483855736083985Q25.20847336988449,7.426745736083984,25.11047336988449,7.374375736083985Q25.01247336988449,7.322005736083985,24.912073369884492,7.274505736083984Q24.811673369884492,7.227005736083984,24.70897336988449,7.184485736083984Q24.60637336988449,7.141975736083984,24.50177336988449,7.104545736083985Q24.39717336988449,7.067115736083984,24.29087336988449,7.034865736083985Q24.18457336988449,7.0026157360839845,24.076773369884492,6.975625736083984Q23.96897336988449,6.948635736083984,23.860073369884493,6.926955736083984Q23.75107336988449,6.905285736083984,23.64117336988449,6.888985736083985Q23.53127336988449,6.872685736083985,23.42077336988449,6.861795736083985Q23.31017336988449,6.850905736083984,23.19917336988449,6.845455736083984Q23.08827336988449,6.839995736083984,22.97717336988449,6.839995736083984L20.375373369884493,6.839995736083984L16.768573369884493,6.839995736083984Q11.77090336988449,6.839995736083984,8.176653369884491,9.101825736083985Q4.784331169884491,11.236583736083984,2.876763369884491,15.225565736083984Q1.376033369884491,18.363795736083986,0.7661833698844909,22.807335736083985Z" fill-rule="evenodd" fill="url(#master_svg0_42_4404)" fill-opacity="1"/></g><g><path d="M0.13573464843750038,24.965635583496095Q0.29563464843749987,29.295535583496093,0.29563464843749987,31.525535583496094L9.3467046484375,31.525535583496094Q9.3467046484375,29.128435583496096,9.1806346484375,24.631635583496095Q8.9811846484375,19.23093558349609,9.0856946484375,16.978435583496093Q9.2346946484375,13.766945583496094,9.9362246484375,12.062565583496093Q10.5105846484375,10.667165583496093,11.662224648437501,10.024955583496094Q13.4086446484375,9.051075583496093,16.9264146484375,9.051075583496093L25.5150146484375,9.051075583496093Q25.6261146484375,9.051075583496093,25.7371146484375,9.045615583496094Q25.8480146484375,9.040165583496094,25.9586146484375,9.029275583496094Q26.0691146484375,9.018395583496094,26.1790146484375,9.002085583496093Q26.2889146484375,8.985785583496094,26.3979146484375,8.964115583496094Q26.5068146484375,8.942445583496093,26.6146146484375,8.915445583496094Q26.7224146484375,8.888455583496093,26.8287146484375,8.856205583496093Q26.9350146484375,8.823955583496094,27.0396146484375,8.786525583496093Q27.1442146484375,8.749095583496093,27.2468146484375,8.706585583496093Q27.3495146484375,8.664075583496093,27.4499146484375,8.616575583496093Q27.5503146484375,8.569075583496094,27.6483146484375,8.516705583496094Q27.7463146484375,8.464335583496094,27.8416146484375,8.407215583496093Q27.9369146484375,8.350105583496093,28.0292146484375,8.288385583496094Q28.1216146484375,8.226655583496093,28.2109146484375,8.160475583496094Q28.3001146484375,8.094295583496095,28.3860146484375,8.023825583496095Q28.4718146484375,7.953345583496094,28.5542146484375,7.878735583496094Q28.6365146484375,7.804125583496093,28.7150146484375,7.725575583496093Q28.7936146484375,7.647015583496094,28.8682146484375,7.564695583496094Q28.9428146484375,7.482385583496094,29.0133146484375,7.3965055834960935Q29.0838146484375,7.310625583496094,29.1499146484375,7.2213955834960935Q29.2161146484375,7.132165583496094,29.2778146484375,7.039785583496094Q29.3396146484375,6.947415583496094,29.3967146484375,6.852125583496093Q29.4538146484375,6.756835583496094,29.5062146484375,6.658855583496093Q29.5585146484375,6.560885583496094,29.6060146484375,6.460455583496094Q29.6535146484375,6.3600255834960935,29.6960146484375,6.257385583496093Q29.7386146484375,6.154745583496094,29.7760146484375,6.050145583496094Q29.8134146484375,5.945545583496093,29.8457146484375,5.839225583496094Q29.8779146484375,5.732915583496093,29.9049146484375,5.625155583496094Q29.9319146484375,5.517384583496094,29.9536146484375,5.408423583496094Q29.9752146484375,5.299462583496094,29.9916146484375,5.189569583496094Q30.0079146484375,5.079676583496093,30.0187146484375,4.969115583496094Q30.0296146484375,4.858554583496094,30.0351146484375,4.747593583496093Q30.0405146484375,4.636631583496094,30.0405146484375,4.525535583496094Q30.0405146484375,4.414439583496094,30.0351146484375,4.303477583496094Q30.0296146484375,4.192516583496094,30.0187146484375,4.081955583496094Q30.0079146484375,3.9713945834960938,29.9916146484375,3.8615015834960937Q29.9752146484375,3.7516085834960937,29.9536146484375,3.642647583496094Q29.9319146484375,3.5336865834960935,29.9049146484375,3.425915583496094Q29.8779146484375,3.318155583496094,29.8457146484375,3.2118455834960935Q29.8134146484375,3.1055255834960938,29.7760146484375,3.0009255834960937Q29.7386146484375,2.8963255834960937,29.6960146484375,2.793685583496094Q29.6535146484375,2.691045583496094,29.6060146484375,2.5906155834960938Q29.5585146484375,2.4901855834960935,29.5062146484375,2.392215583496094Q29.4538146484375,2.2942355834960937,29.3967146484375,2.198945583496094Q29.3396146484375,2.103655583496094,29.2778146484375,2.0112855834960937Q29.2161146484375,1.9189055834960937,29.1499146484375,1.8296755834960936Q29.0838146484375,1.740445583496094,29.0133146484375,1.654565583496094Q28.9428146484375,1.5686855834960935,28.8682146484375,1.4863755834960939Q28.7936146484375,1.4040555834960937,28.7150146484375,1.3254955834960938Q28.6365146484375,1.2469455834960939,28.5542146484375,1.1723355834960936Q28.4718146484375,1.0977255834960937,28.3860146484375,1.0272455834960939Q28.3001146484375,0.9567755834960936,28.2109146484375,0.8905955834960939Q28.1216146484375,0.8244155834960938,28.0292146484375,0.7626855834960939Q27.9369146484375,0.7009655834960937,27.8416146484375,0.643855583496094Q27.7463146484375,0.5867355834960937,27.6483146484375,0.5343655834960939Q27.5503146484375,0.4819955834960936,27.4499146484375,0.4344955834960942Q27.3495146484375,0.38699558349609386,27.2468146484375,0.3444855834960938Q27.1442146484375,0.30197558349609377,27.0396146484375,0.26454558349609414Q26.9350146484375,0.22711558349609362,26.8287146484375,0.19486558349609417Q26.7224146484375,0.16261558349609384,26.6146146484375,0.13562558349609333Q26.5068146484375,0.10862558349609408,26.3979146484375,0.08695558349609378Q26.2889146484375,0.06528558349609348,26.1790146484375,0.048985583496094165Q26.0691146484375,0.03267558349609345,25.9586146484375,0.021795583496094117Q25.8480146484375,0.010905583496093385,25.7371146484375,0.005455583496093652Q25.6261146484375,-0.000004416503906590208,25.5150146484375,-0.000004416503906590208L16.9264146484375,-0.000004416503906590208Q5.1134616484375,0.000005583496093919393,1.5664346484374998,8.617505583496094Q0.2662446484374996,11.776325583496094,0.044344648437499856,16.558935583496094Q-0.0776353515624999,19.18813558349609,0.13573464843750038,24.965635583496095Z" fill-rule="evenodd" fill="url(#master_svg1_42_4156)" fill-opacity="1"/></g></g></svg>