<svg xmlns="http://www.w3.org/2000/svg" xmlns:xlink="http://www.w3.org/1999/xlink" fill="none" version="1.1" width="16" height="16" viewBox="0 0 16 16"><defs><clipPath id="master_svg0_109_13174"><rect x="0" y="0" width="16" height="16" rx="0"/></clipPath></defs><g clip-path="url(#master_svg0_109_13174)"><g><path d="M11.33331298828125,2.6667040234375L14.66661298828125,2.6667040234375L14.66661298828125,4.0000440234375L13.33331298828125,4.0000440234375L13.33331298828125,14.0000740234375C13.33331298828125,14.3682740234375,13.03481298828125,14.6666740234375,12.66661298828125,14.6666740234375L3.33331298828125,14.6666740234375C2.9651229882812498,14.6666740234375,2.66664298828125,14.3682740234375,2.66664298828125,14.0000740234375L2.66664298828125,4.0000440234375L1.33331298828125,4.0000440234375L1.33331298828125,2.6667040234375L4.66664298828125,2.6667040234375L4.66664298828125,1.3333740234375L11.33331298828125,1.3333740234375L11.33331298828125,2.6667040234375ZM5.99998298828125,6.0000440234375L5.99998298828125,11.3333740234375L7.33331298828125,11.3333740234375L7.33331298828125,6.0000440234375L5.99998298828125,6.0000440234375ZM8.66664298828125,6.0000440234375L8.66664298828125,11.3333740234375L9.99998298828125,11.3333740234375L9.99998298828125,6.0000440234375L8.66664298828125,6.0000440234375Z" fill="#E21919" fill-opacity="1"/></g></g></svg>